Source-HROTd_VROTn.ufo
<glyph name="comma" format="2">
  <advance width="274"/>
  <unicode hex="002C"/>
  <outline>
    <contour>
      <point x="65.77350269189625" y="221.32893753631288" type="line"/>
      <point x="68.86427739861047" y="234.12257337060635" type="line"/>
      <point x="93.83786226576797" y="186.29613884323913"/>
      <point x="94.42593623188108" y="125.00754287848117"/>
      <point x="34.07310613625046" y="-5.227517296041813" type="curve"/>
      <point x="18.20819744210827" y="6.316807796858566" type="line"/>
      <point x="176.07113370577605" y="152.39521507323235"/>
      <point x="226.8412369838224" y="276.60009379551406"/>
      <point x="217.09661128853423" y="346.19405197906957" type="curve"/>
      <point x="232.77350269189625" y="339.4157699944663" type="line"/>
    </contour>
    <contour>
      <point x="54.226497308103745" y="237.65886915486738" type="curve" smooth="yes"/>
      <point x="221.22649730810375" y="355.7457016130208" type="line" smooth="yes"/>
      <point x="227.34163125793978" y="360.0697542968139"/>
      <point x="235.8648347809254" y="356.3845417502391"/>
      <point x="236.90338871146577" y="348.96741962841753" type="curve" smooth="yes"/>
      <point x="247.15374329118123" y="275.76165777629535"/>
      <point x="197.84754674928192" y="145.29699649782017"/>
      <point x="31.79180255789173" y="-8.362622439307327" type="curve" smooth="yes"/>
      <point x="23.750157997377187" y="-15.80395513643035"/>
      <point x="11.320178427373436" y="-6.75910478017104"/>
      <point x="15.926893863749541" y="3.181702653593052" type="curve" smooth="yes"/>
      <point x="71.52363289934391" y="123.15361850799285"/>
      <point x="74.14126978853203" y="180.80775009720674"/>
      <point x="51.135722601389524" y="224.8652333205739" type="curve" smooth="yes"/>
      <point x="48.81881652698383" y="229.30229581132377"/>
      <point x="50.139479054785276" y="234.7689108331127"/>
    </contour>
    <contour>
      <point x="17.18726933217453" y="5.218986583034117" type="curve" smooth="yes"/>
      <point x="102.05035475082862" y="111.43873978394558"/>
      <point x="137.02608604609986" y="192.18441608950826"/>
      <point x="138.00152380953264" y="248.05324731855916" type="curve" smooth="yes"/>
      <point x="138.26337530271087" y="263.0509616042602"/>
      <point x="158.26032768364558" y="262.70182628002254"/>
      <point x="157.99847619046736" y="247.70411199432152" type="curve" smooth="yes"/>
      <point x="156.97447912214713" y="189.0540150494477"/>
      <point x="121.9004756116841" y="104.24279049686972"/>
      <point x="32.81273066782547" y="-7.264801225482878" type="curve" smooth="yes"/>
      <point x="23.44988981143773" y="-18.983897227221085"/>
      <point x="7.824428475786787" y="-6.500109418704091"/>
    </contour>
    <contour>
      <point x="57.95497356120696" y="239.28256346149146" type="curve" smooth="yes"/>
      <point x="145.95497356120697" y="257.6673397723417" type="line"/>
      <point x="140.16219009557582" y="254.0890529062628" type="line"/>
      <point x="219.16219009557582" y="353.791109053566" type="line" smooth="yes"/>
      <point x="228.47774997030953" y="365.5478239102022"/>
      <point x="244.15336977915788" y="353.1270774105573"/>
      <point x="234.83780990442418" y="341.3703625539211" type="curve" smooth="yes"/>
      <point x="155.83780990442418" y="241.6683064066179" type="line" smooth="yes"/>
      <point x="154.38489801181728" y="239.83465700036757"/>
      <point x="152.33507570362366" y="238.56845185275193"/>
      <point x="150.04502643879303" y="238.090019540539" type="curve" smooth="yes"/>
      <point x="62.04502643879304" y="219.7052432296888" type="line" smooth="yes"/>
      <point x="47.36203626494104" y="216.63770357149923"/>
      <point x="43.271983387354965" y="236.2150238033019"/>
    </contour>
  </outline>
</glyph>
<glyph name="slash" format="2">
  <advance width="490"/>
  <unicode hex="002F"/>
  <outline>
    <contour>
      <point x="30.773502691896258" y="29.702999834758472" type="line" smooth="yes"/>
      <point x="22.72318942699324" y="24.010568734469533"/>
      <point x="12.164157671907127" y="32.1712589442881"/>
      <point x="15.643257076722918" y="41.396614375165576" type="curve" smooth="yes"/>
      <point x="315.64325707672293" y="836.8917432100316" type="line" smooth="yes"/>
      <point x="316.3479353023646" y="838.760303529678"/>
      <point x="317.5959372673302" y="840.3750802262163"/>
      <point x="319.2264973081037" y="841.5280602881791" type="curve" smooth="yes"/>
      <point x="460.2264973081037" y="941.2301164354823" type="line" smooth="yes"/>
      <point x="468.2768105730059" y="946.9225475357706"/>
      <point x="478.8358423280925" y="938.7618573259517"/>
      <point x="475.35674292327707" y="929.5365018950752" type="curve" smooth="yes"/>
      <point x="175.35674292327707" y="134.0413730602091" type="line" smooth="yes"/>
      <point x="174.65206469763538" y="132.17281274056256"/>
      <point x="173.4040627326698" y="130.55803604402448"/>
      <point x="171.77350269189625" y="129.4050559820617" type="curve" smooth="yes"/>
    </contour>
    <contour>
      <point x="19.226497308103742" y="46.032931453313" type="line"/>
      <point x="160.22649730810375" y="145.7349876006162" type="line"/>
      <point x="156.64325707672293" y="141.09867052246878" type="line"/>
      <point x="456.64325707672293" y="936.5937993573348" type="line"/>
      <point x="471.7735026918963" y="924.9001848169277" type="line"/>
      <point x="330.7735026918963" y="825.1981286696245" type="line"/>
      <point x="334.35674292327707" y="829.834445747772" type="line"/>
      <point x="34.35674292327708" y="34.33931691290589" type="line"/>
    </contour>
    <contour>
      <point x="383.3530871734548" y="820.632378989021" type="curve" smooth="yes"/>
      <point x="127.35308717345481" y="143.93118939349503" type="line" smooth="yes"/>
      <point x="122.0455961717715" y="129.90155863331282"/>
      <point x="103.33942182486189" y="136.9782133022239"/>
      <point x="108.64691282654519" y="151.00784406240612" type="curve" smooth="yes"/>
      <point x="364.6469128265452" y="827.7090336579321" type="line" smooth="yes"/>
      <point x="369.95440382822846" y="841.7386644181142"/>
      <point x="388.6605781751381" y="834.6620097492032"/>
    </contour>
    <contour>
      <point x="163.98011550111335" y="127.77614275332968" type="curve" smooth="yes"/>
      <point x="115.98011550111333" y="137.6756376899413" type="line"/>
      <point x="125.62492851663023" y="140.99955033574426" type="line"/>
      <point x="32.624928516630234" y="31.39799925182943" type="line" smooth="yes"/>
      <point x="22.919978928320774" y="19.96060647688408"/>
      <point x="7.6701218950603085" y="32.900539261296686"/>
      <point x="17.37507148336977" y="44.33793203624204" type="curve" smooth="yes"/>
      <point x="110.37507148336977" y="153.9394831201569" type="line" smooth="yes"/>
      <point x="112.74062093479522" y="156.72730988404865"/>
      <point x="116.43904593168824" y="158.00190604230994"/>
      <point x="120.01988449888667" y="157.26339576595984" type="curve" smooth="yes"/>
      <point x="168.01988449888665" y="147.3639008293482" type="line" smooth="yes"/>
      <point x="182.71070305590055" y="144.33407408101823"/>
      <point x="178.67093405812724" y="124.7463160049997"/>
    </contour>
    <contour>
      <point x="326.84383252127896" y="843.1916387064806" type="curve" smooth="yes"/>
      <point x="375.84383252127896" y="833.9992505510554" type="line"/>
      <point x="366.3612464336364" y="830.6243443635565" type="line"/>
      <point x="458.3612464336364" y="939.5187886662849" type="line" smooth="yes"/>
      <point x="468.0417034937563" y="950.9769190158303"/>
      <point x="483.31921062648354" y="938.0696429356705"/>
      <point x="473.6387535663636" y="926.6115125861251" type="curve" smooth="yes"/>
      <point x="381.6387535663636" y="817.7170682833967" type="line" smooth="yes"/>
      <point x="379.3156888473604" y="814.9674069610583"/>
      <point x="375.6940703162295" y="813.6784523787843"/>
      <point x="372.15616747872104" y="814.3421620958977" type="curve" smooth="yes"/>
      <point x="323.15616747872104" y="823.5345502513229" type="line" smooth="yes"/>
      <point x="308.4133511373527" y="826.3002990332413"/>
      <point x="312.10101617991063" y="845.957387488399"/>
    </contour>
  </outline>
</glyph>
<glyph name="zero" format="2">
  <advance width="646"/>
  <unicode hex="0030"/>
  <outline>
    <contour>
      <point x="323.0" y="486.98127676088177" type="curve" smooth="yes"/>
      <point x="415.1933486446506" y="486.98127676088177"/>
      <point x="468.0" y="418.58614057131365"/>
      <point x="468.0" y="312.9325035256027" type="curve" smooth="yes"/>
      <point x="468.0" y="207.2788664798918"/>
      <point x="415.1933486446506" y="140.2979438526968"/>
      <point x="323.0" y="140.2979438526968" type="curve" smooth="yes"/>
      <point x="230.80665135534946" y="140.2979438526968"/>
      <point x="178.0" y="208.6930800422649"/>
      <point x="178.0" y="314.34671708797583" type="curve" smooth="yes"/>
      <point x="178.0" y="420.00035413368676"/>
      <point x="230.80665135534946" y="486.98127676088177"/>
    </contour>
    <contour>
      <point x="323.0" y="575.3696244092002" type="curve" smooth="yes"/>
      <point x="502.0283204692718" y="575.3696244092002"/>
      <point x="621.0" y="463.67227648642165"/>
      <point x="621.0" y="312.9325035256027" type="curve" smooth="yes"/>
      <point x="621.0" y="162.9244770354674"/>
      <point x="502.0283204692718" y="51.909596204378325"/>
      <point x="323.0" y="51.909596204378346" type="curve" smooth="yes"/>
      <point x="143.97167953072812" y="51.90959620437837"/>
      <point x="25.00000000000002" y="163.60694412715694"/>
      <point x="25.0" y="314.34671708797583" type="curve" smooth="yes"/>
      <point x="24.99999999999998" y="464.35474357811114"/>
      <point x="143.97167953072812" y="575.3696244092002"/>
    </contour>
    <contour>
      <point x="323.0" y="602.239682094289" type="curve" smooth="yes"/>
      <point x="458.7477530219806" y="602.239682094289"/>
      <point x="544.0" y="511.3812670891304"/>
      <point x="544.0" y="383.6431816442575" type="curve" smooth="yes"/>
      <point x="544.0" y="255.9050961993845"/>
      <point x="458.7477530219806" y="166.460894756599"/>
      <point x="323.0" y="166.46089475659903" type="curve" smooth="yes"/>
      <point x="187.25224697801943" y="166.46089475659906"/>
      <point x="101.99999999999999" y="257.3193097617577"/>
      <point x="102.0" y="385.0573952066306" type="curve" smooth="yes"/>
      <point x="102.00000000000001" y="512.7954806515038"/>
      <point x="187.25224697801943" y="602.239682094289"/>
    </contour>
    <contour>
      <point x="323.0" y="466.98127676088177" type="curve" smooth="yes"/>
      <point x="241.24652814060087" y="466.98127676088177"/>
      <point x="198.0" y="408.03624860019164"/>
      <point x="198.0" y="314.34671708797583" type="curve" smooth="yes"/>
      <point x="198.0" y="220.65718557576002"/>
      <point x="241.24652814060087" y="160.2979438526968"/>
      <point x="323.0" y="160.2979438526968" type="curve" smooth="yes"/>
      <point x="404.753471859399" y="160.2979438526968"/>
      <point x="448.0" y="219.24297201338692"/>
      <point x="448.0" y="312.9325035256027" type="curve" smooth="yes"/>
      <point x="448.0" y="406.62203503781853"/>
      <point x="404.753471859399" y="466.98127676088177"/>
    </contour>
    <contour>
      <point x="323.0" y="555.3696244092002" type="curve" smooth="yes"/>
      <point x="156.00773970214757" y="555.3696244092002"/>
      <point x="44.99999999999998" y="454.2697155317186"/>
      <point x="45.0" y="314.34671708797583" type="curve" smooth="yes"/>
      <point x="45.00000000000002" y="173.74116743231232"/>
      <point x="156.00773970214757" y="71.90959620437837"/>
      <point x="323.0" y="71.90959620437835" type="curve" smooth="yes"/>
      <point x="489.9922602978524" y="71.90959620437832"/>
      <point x="601.0" y="173.00950508185994"/>
      <point x="601.0" y="312.9325035256027" type="curve" smooth="yes"/>
      <point x="601.0" y="453.5380531812661"/>
      <point x="489.9922602978524" y="555.3696244092002"/>
    </contour>
    <contour>
      <point x="323.0" y="582.239682094289" type="curve" smooth="yes"/>
      <point x="198.697841476747" y="582.239682094289"/>
      <point x="122.00000000000001" y="502.0252226140899"/>
      <point x="122.0" y="385.0573952066306" type="curve" smooth="yes"/>
      <point x="121.99999999999999" y="268.0895677991712"/>
      <point x="198.697841476747" y="186.46089475659906"/>
      <point x="323.0" y="186.46089475659903" type="curve" smooth="yes"/>
      <point x="447.3021585232531" y="186.460894756599"/>
      <point x="524.0" y="266.6753542367981"/>
      <point x="524.0" y="383.6431816442575" type="curve" smooth="yes"/>
      <point x="524.0" y="500.61100905171685"/>
      <point x="447.3021585232531" y="582.239682094289"/>
    </contour>
  </outline>
</glyph>
<glyph name="one" format="2">
  <advance width="392"/>
  <unicode hex="0031"/>
  <outline>
    <contour>
      <point x="315.0" y="320.0035713374682" type="curve" smooth="yes"/>
      <point x="314.99999999999994" y="148.35632713276343"/>
      <point x="321.0511185102015" y="106.02786947474041"/>
      <point x="340.16496580927725" y="78.99680739525937" type="curve" smooth="yes"/>
      <point x="344.8483881642246" y="72.37344798257149"/>
      <point x="340.1119254720727" y="63.22330470336311"/>
      <point x="332.0" y="63.22330470336311" type="curve" smooth="yes"/>
      <point x="125.0" y="63.22330470336311" type="line" smooth="yes"/>
      <point x="116.2045647508385" y="63.22330470336311"/>
      <point x="111.69319126084291" y="73.76044751648183"/>
      <point x="117.76364945658386" y="80.12513278096696" type="curve" smooth="yes"/>
      <point x="145.39606547436674" y="109.09685540544653"/>
      <point x="151.99999999999994" y="148.8682795556587"/>
      <point x="152.0" y="320.0035713374682" type="curve" smooth="yes"/>
      <point x="152.00000000000003" y="376.29455024872726"/>
      <point x="151.0098813961653" y="417.11313518857514"/>
      <point x="149.01969475077624" y="448.7768108261586" type="curve"/>
      <point x="160.74077655955696" y="439.5567930162598" type="line"/>
      <point x="102.0973117598684" y="429.1899951082262"/>
      <point x="67.13234743899164" y="414.7967515958786"/>
      <point x="32.923659639173316" y="395.44539550088246" type="curve" smooth="yes"/>
      <point x="26.257378557888764" y="391.67437745458494"/>
      <point x="17.999999999999996" y="396.4903044404933"/>
      <point x="18.0" y="404.14927829866735" type="curve"/>
      <point x="18.0" y="518.7005768508881" type="line" smooth="yes"/>
      <point x="18.0" y="523.6448943170483"/>
      <point x="21.61335375234404" y="527.846998277516"/>
      <point x="26.501871491683225" y="528.5877205725384" type="curve" smooth="yes"/>
      <point x="320.50187149168323" y="573.1354477872909" type="line" smooth="yes"/>
      <point x="327.74890092970463" y="574.2335385713802"/>
      <point x="333.67578044521537" y="567.419801403621"/>
      <point x="331.58423217380107" y="560.3947985656149" type="curve" smooth="yes"/>
      <point x="319.690630229502" y="520.4470772747648"/>
      <point x="315.00000000000006" y="486.1019914415295"/>
    </contour>
    <contour>
      <point x="295.0" y="320.0035713374682" type="curve" smooth="yes"/>
      <point x="295.00000000000006" y="489.04817194561804"/>
      <point x="300.31120241728814" y="525.4455132168705"/>
      <point x="312.41576782619893" y="566.1018095656663" type="curve"/>
      <point x="323.49812850831677" y="553.3611603439903" type="line"/>
      <point x="29.498128508316775" y="508.8134331292378" type="line"/>
      <point x="38.0" y="518.7005768508881" type="line"/>
      <point x="38.0" y="404.14927829866735" type="line"/>
      <point x="23.076340360826684" y="412.85316109645225" type="line"/>
      <point x="58.86253162102716" y="433.09688790679354"/>
      <point x="95.91146699438508" y="448.40657792455596"/>
      <point x="157.25922344044304" y="459.25143157295304" type="curve" smooth="yes"/>
      <point x="163.13440487300744" y="460.29002673086995"/>
      <point x="168.60603994555385" y="455.9859382822805"/>
      <point x="168.98030524922376" y="450.0314137630542" type="curve" smooth="yes"/>
      <point x="170.9896812337312" y="418.0624376095854"/>
      <point x="172.00000000000003" y="376.83730672141286"/>
      <point x="172.0" y="320.0035713374682" type="curve" smooth="yes"/>
      <point x="171.99999999999994" y="132.55120675098837"/>
      <point x="162.50340807340066" y="98.05553834709245"/>
      <point x="132.23635054341614" y="66.32147662575926" type="curve"/>
      <point x="125.0" y="83.22330470336311" type="line"/>
      <point x="332.0" y="83.22330470336311" type="line"/>
      <point x="323.83503419072275" y="67.44980201146686" type="line"/>
      <point x="303.0133078077302" y="96.89616985431664"/>
      <point x="294.99999999999994" y="133.01913553537213"/>
    </contour>
    <contour>
      <point x="320.30044012901726" y="553.3937875252442" type="curve" smooth="yes"/>
      <point x="238.30044012901726" y="567.5359231489751" type="line"/>
      <point x="248.44992145215366" y="572.0426525346286" type="line"/>
      <point x="167.44992145215366" y="444.0563251398635" type="line" smooth="yes"/>
      <point x="159.42824072003927" y="431.38144296163296"/>
      <point x="142.52839781573195" y="442.07701727111885"/>
      <point x="150.55007854784634" y="454.75189944934937" type="curve" smooth="yes"/>
      <point x="231.55007854784634" y="582.7382268441145" type="line" smooth="yes"/>
      <point x="233.7115737672647" y="586.1535581381231"/>
      <point x="237.7165123458294" y="587.9318927943592"/>
      <point x="241.69955987098274" y="587.2449562297679" type="curve" smooth="yes"/>
      <point x="323.69955987098274" y="573.102820606037" type="line" smooth="yes"/>
      <point x="338.48133468157727" y="570.5534807995629"/>
      <point x="335.0822149396118" y="550.8444477187701"/>
    </contour>
    <contour>
      <point x="324.46666434475213" y="66.64691862091847" type="curve" smooth="yes"/>
      <point x="224.46666434475216" y="181.19821717313914" type="line"/>
      <point x="239.30783277343784" y="180.94850772772395" type="line"/>
      <point x="132.30783277343784" y="66.39720917550329" type="line" smooth="yes"/>
      <point x="122.06868948164811" y="55.435460015346536"/>
      <point x="107.45302393477243" y="69.08765107106618"/>
      <point x="117.69216722656216" y="80.04940023122293" type="curve" smooth="yes"/>
      <point x="224.69216722656216" y="194.6006987834436" type="line" smooth="yes"/>
      <point x="228.73641039056415" y="198.93035584977414"/>
      <point x="235.63703734690827" y="198.8142496456996"/>
      <point x="239.53333565524784" y="194.3509893380284" type="curve" smooth="yes"/>
      <point x="339.53333565524787" y="79.79969078580775" type="line" smooth="yes"/>
      <point x="349.3979147789148" y="68.49968730293598"/>
      <point x="334.3312434684191" y="55.3469151380467"/>
    </contour>
    <contour>
      <point x="87.80498464043825" y="559.5693967665829" type="curve" smooth="yes"/>
      <point x="132.07759886732052" y="569.5302267749828"/>
      <point x="192.34457708179096" y="580.8927017434595"/>
      <point x="238.62958286444064" y="587.296092463145" type="curve" smooth="yes"/>
      <point x="245.09499631733894" y="588.1905628818727"/>
      <point x="250.67037181767074" y="582.7518586917956"/>
      <point x="249.93660791896454" y="576.2662408347328" type="curve" smooth="yes"/>
      <point x="245.95623462818656" y="541.084379015196"/>
      <point x="244.0" y="501.1852955694691"/>
      <point x="244.0" y="390.71424945612296" type="curve"/>
      <point x="241.9995144157812" y="187.67605657332632" type="line" smooth="yes"/>
      <point x="241.85169439239502" y="172.67678494965452"/>
      <point x="221.85266556083263" y="172.87387831416942"/>
      <point x="222.0004855842188" y="187.87314993784122" type="curve" smooth="yes"/>
      <point x="224.0" y="390.71424945612296" type="line"/>
      <point x="224.0" y="502.3062232499599"/>
      <point x="226.04263073603605" y="542.9757933867373"/>
      <point x="230.06339208103546" y="578.5146385440103" type="curve"/>
      <point x="241.37041713555936" y="567.4847869155981" type="line"/>
      <point x="195.66475140588008" y="561.1615461420131"/>
      <point x="135.9134782314289" y="549.8933059940751"/>
      <point x="92.19501535956175" y="540.0571536796092" type="curve" smooth="yes"/>
      <point x="77.56083304433149" y="536.7646306402665"/>
      <point x="73.17080232520799" y="556.2768737272403"/>
    </contour>
    <contour>
      <point x="18.798802352660857" y="408.0656493044073" type="curve" smooth="yes"/>
      <point x="80.79880235266086" y="553.729646228836" type="line"/>
      <point x="94.48512828438031" y="540.8755112816702" type="line"/>
      <point x="32.48512828438031" y="509.76281290946224" type="line" smooth="yes"/>
      <point x="19.078482372241567" y="503.0351204828918"/>
      <point x="10.10822580348095" y="520.9106483657434"/>
      <point x="23.514871715619694" y="527.6383407923139" type="curve" smooth="yes"/>
      <point x="85.51487171561969" y="558.7510391645219" type="line" smooth="yes"/>
      <point x="93.8363961311528" y="562.9269275377065"/>
      <point x="102.84754332822003" y="554.4636991535696"/>
      <point x="99.20119764733914" y="545.8969042173561" type="curve" smooth="yes"/>
      <point x="37.20119764733914" y="400.2329072929274" type="line" smooth="yes"/>
      <point x="31.3266411387292" y="386.4311108219187"/>
      <point x="12.924245844050914" y="394.26385283339863"/>
    </contour>
  </outline>
</glyph>
<glyph name="two" format="2">
  <advance width="519"/>
  <unicode hex="0032"/>
  <outline>
    <contour>
      <point x="480.0" y="426.06958851545033" type="curve" smooth="yes"/>
      <point x="480.0" y="304.8540422493376"/>
      <point x="308.3628396959502" y="254.21620135949928"/>
      <point x="221.5240308209502" y="155.02462265648575" type="curve"/>
      <point x="214.1240442768236" y="171.61088297295373" type="line"/>
      <point x="381.1743520185965" y="169.5385600711379"/>
      <point x="438.00711924292006" y="179.31710732679946"/>
      <point x="474.15250746774814" y="199.34956204435332" type="curve" smooth="yes"/>
      <point x="481.4869433894856" y="203.4144445285891"/>
      <point x="490.26641580828897" y="197.18976665374004"/>
      <point x="488.85792714550837" y="188.92336601092472" type="curve" smooth="yes"/>
      <point x="468.85792714550837" y="71.54364033395784" type="line" smooth="yes"/>
      <point x="468.0391384829831" y="66.73818090422668"/>
      <point x="463.87471591015026" y="63.22330470336311"/>
      <point x="459.0" y="63.22330470336311" type="curve" smooth="yes"/>
      <point x="27.0" y="63.22330470336311" type="line" smooth="yes"/>
      <point x="20.526550995366637" y="63.22330470336311"/>
      <point x="15.759041844261665" y="69.28041214122952"/>
      <point x="17.279893686326144" y="75.57267339534776" type="curve" smooth="yes"/>
      <point x="66.25989397612295" y="278.2189467048044"/>
      <point x="307.0" y="322.8638503055465"/>
      <point x="307.0" y="418.2914139223983" type="curve" smooth="yes"/>
      <point x="307.0" y="447.1427449374082"/>
      <point x="280.1644728113648" y="464.15284963613556"/>
      <point x="222.0" y="464.15284963613556" type="curve" smooth="yes"/>
      <point x="167.6200590322653" y="464.15284963613556"/>
      <point x="105.2657455904708" y="446.1561402685054"/>
      <point x="53.7990157460076" y="418.00347195116285" type="curve" smooth="yes"/>
      <point x="47.13498925537825" y="414.35820192884654"/>
      <point x="39.0" y="419.18082519483767"/>
      <point x="39.0" y="426.7766952966369" type="curve" smooth="yes"/>
      <point x="39.0" y="542.7422074112308" type="line" smooth="yes"/>
      <point x="39.0" y="547.4778093970694"/>
      <point x="42.321680591583444" y="551.5641106099429"/>
      <point x="46.95744475372843" y="552.5313834779857" type="curve" smooth="yes"/>
      <point x="108.67466226340724" y="565.4089561715441"/>
      <point x="167.30629781850735" y="571.1269837220809"/>
      <point x="227.0" y="571.1269837220809" type="curve" smooth="yes"/>
      <point x="380.4232120576954" y="571.1269837220809"/>
      <point x="480.0" y="517.3479638517606"/>
    </contour>
    <contour>
      <point x="460.0" y="426.06958851545033" type="curve" smooth="yes"/>
      <point x="460.0" y="507.21541508031254"/>
      <point x="363.3921444787744" y="551.1269837220809"/>
      <point x="227.0" y="551.1269837220809" type="curve" smooth="yes"/>
      <point x="168.66916984531528" y="551.1269837220809"/>
      <point x="111.35070167738628" y="545.5365950730035"/>
      <point x="51.04255524627157" y="532.9530313444758" type="curve"/>
      <point x="59.0" y="542.7422074112308" type="line"/>
      <point x="59.0" y="426.7766952966369" type="line"/>
      <point x="44.2009842539924" y="435.5499186421109" type="line"/>
      <point x="98.74555171225505" y="465.38618608723567"/>
      <point x="164.36800419504323" y="484.15284963613556"/>
      <point x="222.0" y="484.15284963613556" type="curve" smooth="yes"/>
      <point x="297.3758917695837" y="484.15284963613556"/>
      <point x="327.0" y="455.68012732221973"/>
      <point x="327.0" y="418.2914139223983" type="curve" smooth="yes"/>
      <point x="327.0" y="314.4410680530299"/>
      <point x="81.72759495505224" y="257.0846299727864"/>
      <point x="36.72010631367385" y="70.87393601137846" type="curve"/>
      <point x="27.0" y="83.22330470336311" type="line"/>
      <point x="459.0" y="83.22330470336311" type="line"/>
      <point x="449.14207285449163" y="74.90296907276839" type="line"/>
      <point x="469.14207285449163" y="192.2826947497353" type="line"/>
      <point x="483.84749253225186" y="181.8564987163067" type="line"/>
      <point x="446.01637605718275" y="160.88978166273895"/>
      <point x="388.7170615944416" y="149.44345100072997"/>
      <point x="213.8759557231764" y="151.61242173040938" type="curve" smooth="yes"/>
      <point x="205.3421868903348" y="151.71828639375636"/>
      <point x="200.85431778976397" y="161.77735403184303"/>
      <point x="206.4759691790498" y="168.19868204687737" type="curve" smooth="yes"/>
      <point x="301.5957553040498" y="276.8492021756492"/>
      <point x="460.0" y="315.40687486038763"/>
    </contour>
    <contour>
      <point x="108.82070186312355" y="584.321657006438" type="curve" smooth="yes"/>
      <point x="147.55792391800023" y="592.971557764122"/>
      <point x="186.28217852551484" y="597.9970414071697"/>
      <point x="224.0" y="597.9970414071697" type="curve" smooth="yes"/>
      <point x="338.54359166235156" y="597.9970414071697"/>
      <point x="404.0" y="557.4290934271967"/>
      <point x="404.0" y="493.2447327281723" type="curve"/>
      <point x="403.99999999999994" y="376.75702277004297"/>
      <point x="191.78416554079598" y="325.4586023214753"/>
      <point x="121.94880499746688" y="185.43286532960317" type="curve"/>
      <point x="113.47088160934804" y="199.88483097232384" type="line"/>
      <point x="173.17648097101844" y="197.07028202676094"/>
      <point x="310.8473731424317" y="198.4894748800242"/>
      <point x="396.4253988941592" y="203.41493553475937" type="curve" smooth="yes"/>
      <point x="411.4006159386839" y="204.27683719352058"/>
      <point x="412.5498181503656" y="184.30988113415424"/>
      <point x="397.5746011058408" y="183.44797947539303" type="curve" smooth="yes"/>
      <point x="311.1282321883533" y="178.47254115337483"/>
      <point x="172.84053856564324" y="177.06390861338124"/>
      <point x="112.52911839065196" y="179.90701622596302" type="curve" smooth="yes"/>
      <point x="105.31218258659767" y="180.247225842392"/>
      <point x="100.82665764146934" y="187.89351484842481"/>
      <point x="104.05119500253312" y="194.35898186868368" type="curve" smooth="yes"/>
      <point x="180.2026089400082" y="347.04893401623724"/>
      <point x="383.99999999999994" y="386.4186244600881"/>
      <point x="384.0" y="493.2447327281723" type="curve"/>
      <point x="384.0" y="547.7395668565081"/>
      <point x="321.2516351354506" y="577.9970414071697"/>
      <point x="224.0" y="577.9970414071697" type="curve" smooth="yes"/>
      <point x="187.72834676675112" y="577.9970414071697"/>
      <point x="150.43126632237534" y="573.1206163280268"/>
      <point x="113.17929813687645" y="564.8023681228126" type="curve" smooth="yes"/>
      <point x="98.53983147415731" y="561.5334209174979"/>
      <point x="94.1812352004044" y="581.0527098011233"/>
    </contour>
    <contour>
      <point x="39.778624005383435" y="430.64531582156684" type="curve" smooth="yes"/>
      <point x="101.77862400538343" y="578.4306330895553" type="line"/>
      <point x="115.56599907746534" y="565.6652911221732" type="line"/>
      <point x="53.565999077465335" y="533.8454859687787" type="line" smooth="yes"/>
      <point x="40.22091691378729" y="526.9964873525806"/>
      <point x="31.08891875885662" y="544.7899302374848"/>
      <point x="44.434000922534665" y="551.6389288536828" type="curve" smooth="yes"/>
      <point x="106.43400092253466" y="583.4587340070774" type="line" smooth="yes"/>
      <point x="114.73446370740515" y="587.7187196280062"/>
      <point x="123.83072140389771" y="579.2967510145401"/>
      <point x="120.22137599461657" y="570.6933920396954" type="curve" smooth="yes"/>
      <point x="58.221375994616565" y="422.90807477170694" type="line" smooth="yes"/>
      <point x="52.41844520722161" y="409.0760107797821"/>
      <point x="33.97569321798848" y="416.813251829642"/>
    </contour>
    <contour>
      <point x="478.6552748733366" y="180.60897391725922" type="curve" smooth="yes"/>
      <point x="396.6552748733366" y="183.4374010420054" type="line"/>
      <point x="405.88749943588215" y="198.01538090945314" type="line"/>
      <point x="467.88749943588215" y="77.80722810774004" type="line" smooth="yes"/>
      <point x="474.76338454244757" y="64.47597895391684"/>
      <point x="456.9883856706833" y="55.30813214516297"/>
      <point x="450.11250056411785" y="68.63938129898618" type="curve" smooth="yes"/>
      <point x="388.11250056411785" y="188.84753410069925" type="line" smooth="yes"/>
      <point x="384.61009605818117" y="195.63814016558703"/>
      <point x="389.70864020530064" y="203.68890555007928"/>
      <point x="397.3447251266634" y="203.425513968147" type="curve" smooth="yes"/>
      <point x="479.3447251266634" y="200.5970868434008" type="line" smooth="yes"/>
      <point x="494.33580982126955" y="200.07999915340577"/>
      <point x="493.6463595679428" y="180.09188622726418"/>
    </contour>
    <contour>
      <point x="18.95045330828679" y="79.15666783551076" type="curve" smooth="yes"/>
      <point x="104.9504533082868" y="195.82928673129106" type="line" smooth="yes"/>
      <point x="107.4164099649625" y="199.17474744312636"/>
      <point x="111.69455968559988" y="200.64622011563895"/>
      <point x="115.69667687641702" y="199.52545805435972" type="curve" smooth="yes"/>
      <point x="216.696676876417" y="171.24118680689784" type="line" smooth="yes"/>
      <point x="231.14097855924143" y="167.1961714922723"/>
      <point x="225.74762480640743" y="147.93710258183972"/>
      <point x="211.303323123583" y="151.98211789646527" type="curve" smooth="yes"/>
      <point x="110.30332312358298" y="180.26638914392714" type="line"/>
      <point x="121.0495466917132" y="183.9625604669958" type="line"/>
      <point x="35.04954669171321" y="67.28994157121546" type="line" smooth="yes"/>
      <point x="26.14950199349174" y="55.21562153364565"/>
      <point x="10.050408610065316" y="67.08234779794095"/>
    </contour>
  </outline>
</glyph>
<glyph name="seven" format="2">
  <advance width="503"/>
  <unicode hex="0037"/>
  <outline>
    <contour>
      <point x="223.18927316784303" y="324.7333802859469" type="curve" smooth="yes"/>
      <point x="223.19392734226471" y="324.74203990301623" type="line"/>
      <point x="301.1939273422647" y="469.6989300462585" type="line"/>
      <point x="310.0" y="454.9604614807105" type="line"/>
      <point x="122.43400914136613" y="454.9604614807105"/>
      <point x="72.96921451621913" y="446.9142498766196"/>
      <point x="38.417584621207595" y="434.34937980814556" type="curve" smooth="yes"/>
      <point x="31.895725610860573" y="431.97767371732095"/>
      <point x="24.999999999999996" y="436.80754373311964"/>
      <point x="25.0" y="443.747258045114" type="curve"/>
      <point x="25.0" y="554.0559159102154" type="line" smooth="yes"/>
      <point x="25.0" y="559.5787634085233"/>
      <point x="29.477152501692068" y="564.0559159102154"/>
      <point x="35.0" y="564.0559159102154" type="curve" smooth="yes"/>
      <point x="503.0" y="564.0559159102154" type="line" smooth="yes"/>
      <point x="510.6388464580857" y="564.0559159102154"/>
      <point x="515.4570248630894" y="555.8376304694482"/>
      <point x="511.72616160282035" y="549.1718496042093" type="curve" smooth="yes"/>
      <point x="380.7293644639739" y="315.1252318602373" type="line" smooth="yes"/>
      <point x="288.40867570173884" y="149.9253839340934"/>
      <point x="277.96279857213125" y="110.26842232506434"/>
      <point x="293.9776119288454" y="77.62812979126979" type="curve" smooth="yes"/>
      <point x="297.23763745288386" y="70.98376969776679"/>
      <point x="292.40103286504774" y="63.22330470336311"/>
      <point x="285.0" y="63.22330470336311" type="curve" smooth="yes"/>
      <point x="71.0" y="63.22330470336311" type="line" smooth="yes"/>
      <point x="61.73610634992888" y="63.22330470336311"/>
      <point x="57.452149826900225" y="74.73177453967679"/>
      <point x="64.46117871894461" y="80.7892690341287" type="curve" smooth="yes"/>
      <point x="100.07067644354674" y="111.56447908666692"/>
      <point x="131.19807071262085" y="153.3714152206772"/>
    </contour>
    <contour>
      <point x="240.81072683215697" y="315.2737623889895" type="line"/>
      <point x="146.81128701118" y="140.1708363173588"/>
      <point x="113.92570121175615" y="97.10439648342101"/>
      <point x="77.53882128105539" y="65.65734037259753" type="curve"/>
      <point x="71.0" y="83.22330470336311" type="line"/>
      <point x="285.0" y="83.22330470336311" type="line"/>
      <point x="276.0223880711546" y="68.81847961545644" type="line"/>
      <point x="258.12477681628616" y="105.29616149678274"/>
      <point x="260.0961706550201" y="140.26017394594555"/>
      <point x="363.2706355360261" y="324.8819108146991" type="curve" smooth="yes"/>
      <point x="494.27383839717965" y="558.9399822162214" type="line"/>
      <point x="503.0" y="544.0559159102154" type="line"/>
      <point x="35.0" y="544.0559159102154" type="line"/>
      <point x="45.0" y="554.0559159102154" type="line"/>
      <point x="45.0" y="443.747258045114" type="line"/>
      <point x="31.5824153787924" y="453.14513628208243" type="line"/>
      <point x="67.01163938117237" y="466.02914776198764"/>
      <point x="117.66992684422301" y="474.9604614807105"/>
      <point x="310.0" y="474.9604614807105" type="curve" smooth="yes"/>
      <point x="317.5654863497365" y="474.9604614807105"/>
      <point x="322.3909545828662" y="466.88421516385085"/>
      <point x="318.8060726577353" y="460.22199291516245" type="curve" smooth="yes"/>
      <point x="240.80607265773529" y="315.26510277192017" type="line"/>
    </contour>
    <contour>
      <point x="188.98769882606874" y="197.76486581152014" type="curve" smooth="yes"/>
      <point x="206.0245244655046" y="233.19679210427879"/>
      <point x="235.1004791904126" y="289.2162849609589"/>
      <point x="293.22611960731155" y="395.512063839235" type="curve" smooth="yes"/>
      <point x="397.2333998295694" y="585.0299707884469" type="line"/>
      <point x="406.0" y="570.2188668141177" type="line"/>
      <point x="205.38514939091766" y="570.2188668141177"/>
      <point x="144.5106464371744" y="568.8172922209855"/>
      <point x="97.60070624500088" y="565.9942848324797" type="curve" smooth="yes"/>
      <point x="82.62779430322288" y="565.0932254649784"/>
      <point x="81.42638181322113" y="585.0571080540159"/>
      <point x="96.39929375499912" y="585.9581674215171" type="curve" smooth="yes"/>
      <point x="143.47756668050613" y="588.7913049561705"/>
      <point x="204.6652583398529" y="590.2188668141177"/>
      <point x="406.0" y="590.2188668141177" type="curve" smooth="yes"/>
      <point x="413.6019570381414" y="590.2188668141177"/>
      <point x="418.4239807423188" y="582.0720946264063"/>
      <point x="414.7666001704306" y="575.4077628397886" type="curve" smooth="yes"/>
      <point x="310.77388039268845" y="385.9164350730109" type="line" smooth="yes"/>
      <point x="252.91396245906103" y="280.10658939258394"/>
      <point x="223.97124263723586" y="224.36799775877455"/>
      <point x="207.01230117393126" y="189.09804919863225" type="curve" smooth="yes"/>
      <point x="200.51218871426536" y="175.57959743773537"/>
      <point x="182.48758636640284" y="184.24641405062326"/>
    </contour>
    <contour>
      <point x="276.8990653673243" y="67.3602971068206" type="curve" smooth="yes"/>
      <point x="189.89906536732428" y="187.5684499085337" type="line"/>
      <point x="204.87420190896955" y="186.16885823795982" type="line"/>
      <point x="77.87420190896955" y="65.96070543624673" type="line" smooth="yes"/>
      <point x="66.98030300829498" y="55.6494025727924"/>
      <point x="53.231899190355875" y="70.17460110702517"/>
      <point x="64.12579809103045" y="80.4859039704795" type="curve" smooth="yes"/>
      <point x="191.12579809103045" y="200.69405677219257" type="line" smooth="yes"/>
      <point x="195.51491360636243" y="204.8484462881878"/>
      <point x="202.55765533802844" y="204.19022439897623"/>
      <point x="206.10093463267572" y="199.2944651016187" type="curve" smooth="yes"/>
      <point x="293.1009346326757" y="79.08631229990563" type="line" smooth="yes"/>
      <point x="301.8954460274895" y="66.93491035089207"/>
      <point x="285.6935767621381" y="55.208895157807035"/>
    </contour>
    <contour>
      <point x="25.945875707621916" y="447.99258880939715" type="curve" smooth="yes"/>
      <point x="87.94587570762192" y="580.2215568912816" type="line"/>
      <point x="100.33333333333334" y="566.5481357111778" type="line"/>
      <point x="38.33333333333334" y="544.6278254943948" type="line" smooth="yes"/>
      <point x="24.191197709602395" y="539.6278254943948"/>
      <point x="17.524531042935713" y="558.484006326036"/>
      <point x="31.66666666666666" y="563.484006326036" type="curve" smooth="yes"/>
      <point x="93.66666666666666" y="585.4043165428191" type="line" smooth="yes"/>
      <point x="102.03389258394333" y="588.3625776357321"/>
      <point x="109.82176334033583" y="579.7662344500776"/>
      <point x="106.05412429237808" y="571.7308953627153" type="curve" smooth="yes"/>
      <point x="44.054124292378084" y="439.50192728083084" type="line" smooth="yes"/>
      <point x="37.686128145953326" y="425.92074084226374"/>
      <point x="19.577879561197157" y="434.41140237083005"/>
    </contour>
    <contour>
      <point x="302.3161916862798" y="471.3603903707845" type="curve" smooth="yes"/>
      <point x="398.3161916862798" y="586.6187957041918" type="line" smooth="yes"/>
      <point x="400.81566465467046" y="589.6196839178446"/>
      <point x="404.83343030560553" y="590.8908774184357"/>
      <point x="408.604149019111" y="589.8738348558185" type="curve" smooth="yes"/>
      <point x="505.604149019111" y="563.7108839519161" type="line" smooth="yes"/>
      <point x="520.0866010816621" y="559.8046604232496"/>
      <point x="514.8783030434402" y="540.4947243398482"/>
      <point x="500.395850980889" y="544.4009478685147" type="curve" smooth="yes"/>
      <point x="403.395850980889" y="570.563898772417" type="line"/>
      <point x="413.6838083137202" y="573.8189379240437" type="line"/>
      <point x="317.6838083137202" y="458.56053259063646" type="line" smooth="yes"/>
      <point x="308.08391497860913" y="447.03482012005617"/>
      <point x="292.71629835116875" y="459.8346779002042"/>
    </contour>
  </outline>
</glyph>
<glyph name="eight" format="2">
  <advance width="568"/>
  <unicode hex="0038"/>
  <outline>
    <contour>
      <point x="285.0" y="50.49538264200524" type="curve" smooth="yes"/>
      <point x="130.82727361362376" y="50.49538264200526"/>
      <point x="25.999999999999993" y="116.51712870021784"/>
      <point x="26.0" y="206.8664863476206" type="curve"/>
      <point x="26.0" y="265.8717422128826"/>
      <point x="64.12120716900536" y="309.8851166283122"/>
      <point x="126.17082152240292" y="335.60535636445206" type="curve"/>
      <point x="125.77320756276202" y="317.30473888641603" type="line"/>
      <point x="74.9850112596439" y="340.99182438248454"/>
      <point x="45.0" y="379.2315460516659"/>
      <point x="45.0" y="428.89801564019655" type="curve"/>
      <point x="45.00000000000001" y="512.1969790428437"/>
      <point x="144.9105122668021" y="576.7838379715733"/>
      <point x="285.0" y="576.7838379715733" type="curve" smooth="yes"/>
      <point x="423.9587243730327" y="576.7838379715733"/>
      <point x="523.0" y="512.1553503754761"/>
      <point x="523.0" y="428.89801564019655" type="curve" smooth="yes"/>
      <point x="523.0" y="379.2315460516659"/>
      <point x="493.0094193353674" y="341.0271974532705"/>
      <point x="443.3018229535921" y="317.340111957202" type="curve"/>
      <point x="442.88628537368896" y="335.58147755977114" type="line"/>
      <point x="503.86607878995903" y="309.86123782363126"/>
      <point x="542.0" y="265.8717422128826"/>
      <point x="542.0" y="206.8664863476206" type="curve" smooth="yes"/>
      <point x="542.0" y="116.51712870021784"/>
      <point x="437.0607712303985" y="50.495382642005225"/>
    </contour>
    <contour>
      <point x="285.0" y="374.5512985522207" type="curve" smooth="yes"/>
      <point x="325.0387841800921" y="374.5512985522207"/>
      <point x="355.0" y="392.9128755176509"/>
      <point x="355.0" y="421.8269478283311" type="curve" smooth="yes"/>
      <point x="355.0" y="450.7410201390112"/>
      <point x="325.0387841800921" y="469.10259710444143"/>
      <point x="285.0" y="469.10259710444143" type="curve" smooth="yes"/>
      <point x="244.12921184145853" y="469.10259710444143"/>
      <point x="213.0" y="450.7269592876745"/>
      <point x="213.0" y="421.8269478283311" type="curve" smooth="yes"/>
      <point x="213.0" y="392.9846930563373"/>
      <point x="245.06066521260894" y="374.5512985522207"/>
    </contour>
    <contour>
      <point x="285.0" y="158.17662350913713" type="curve" smooth="yes"/>
      <point x="332.18396354044154" y="158.17662350913713"/>
      <point x="372.0" y="181.63757262473553"/>
      <point x="372.0" y="217.4730880654188" type="curve" smooth="yes"/>
      <point x="372.0" y="253.90823053601898"/>
      <point x="332.16037155867133" y="275.3553390593273"/>
      <point x="285.0" y="275.3553390593274" type="curve" smooth="yes"/>
      <point x="236.96628822727922" y="275.35533905932743"/>
      <point x="196.0" y="253.90823053601898"/>
      <point x="196.0" y="217.4730880654188" type="curve" smooth="yes"/>
      <point x="196.0" y="181.63757262473553"/>
      <point x="236.9422593569577" y="158.17662350913713"/>
    </contour>
    <contour>
      <point x="285.0" y="405.6639969244288" type="curve" smooth="yes"/>
      <point x="366.7363907401812" y="405.6639969244288"/>
      <point x="429.0" y="436.9780091703265"/>
      <point x="429.0" y="496.07315985291854" type="curve" smooth="yes"/>
      <point x="429.0" y="547.7147937106163"/>
      <point x="366.2484326204365" y="583.6538956566621"/>
      <point x="285.0" y="583.6538956566621" type="curve" smooth="yes"/>
      <point x="202.83866364225517" y="583.6538956566621"/>
      <point x="138.99999999999997" y="547.7147937106163"/>
      <point x="139.0" y="496.07315985291854" type="curve" smooth="yes"/>
      <point x="139.00000000000006" y="437.0370895472214"/>
      <point x="203.3453252164613" y="405.6639969244288"/>
    </contour>
    <contour>
      <point x="285.0" y="165.04668119422593" type="curve" smooth="yes"/>
      <point x="176.24063717695878" y="165.04668119422593"/>
      <point x="101.0" y="214.7595952583104"/>
      <point x="101.0" y="282.52691193458116" type="curve" smooth="yes"/>
      <point x="101.0" y="359.8431346532268"/>
      <point x="178.8742801445434" y="405.6639969244288"/>
      <point x="285.0" y="405.6639969244288" type="curve" smooth="yes"/>
      <point x="389.0337568019422" y="405.6639969244288"/>
      <point x="467.00000000000006" y="359.8817927645861"/>
      <point x="467.0" y="282.52691193458116" type="curve" smooth="yes"/>
      <point x="466.99999999999994" y="214.72571159997227"/>
      <point x="391.6590149301071" y="165.04668119422593"/>
    </contour>
    <contour>
      <point x="285.0" y="70.49538264200524" type="curve" smooth="yes"/>
      <point x="420.7227509853076" y="70.49538264200523"/>
      <point x="522.0" y="126.22462671190185"/>
      <point x="522.0" y="206.8664863476206" type="curve" smooth="yes"/>
      <point x="522.0" y="258.12971842958046"/>
      <point x="488.0924070557863" y="294.8080757561817"/>
      <point x="435.11371462631104" y="317.1535871765231" type="curve" smooth="yes"/>
      <point x="427.1620930323241" y="320.5074459259665"/>
      <point x="426.90752607282457" y="331.6824856892742"/>
      <point x="434.6981770464079" y="335.39495277909225" type="curve" smooth="yes"/>
      <point x="476.9650854899368" y="355.5363385396687"/>
      <point x="503.0" y="386.6660777551169"/>
      <point x="503.0" y="428.89801564019655" type="curve" smooth="yes"/>
      <point x="503.0" y="502.50721279133967"/>
      <point x="407.8557240124051" y="556.7838379715733"/>
      <point x="285.0" y="556.7838379715733" type="curve" smooth="yes"/>
      <point x="161.20644603330163" y="556.7838379715733"/>
      <point x="65.0" y="502.50721279133967"/>
      <point x="65.0" y="428.89801564019655" type="curve" smooth="yes"/>
      <point x="65.0" y="386.6660777551169"/>
      <point x="91.04103815798018" y="355.57171161045466"/>
      <point x="134.22679243723798" y="335.4303258498782" type="curve" smooth="yes"/>
      <point x="142.11020605589735" y="331.75358389055424"/>
      <point x="141.8648451455016" y="320.4605795672873"/>
      <point x="133.82917847759708" y="317.1297083718422" type="curve" smooth="yes"/>
      <point x="79.92103530374503" y="294.7841969515008"/>
      <point x="46.0" y="258.12971842958046"/>
      <point x="46.0" y="206.8664863476206" type="curve"/>
      <point x="45.99999999999999" y="126.18428561153381"/>
      <point x="147.32337249280965" y="70.49538264200527"/>
    </contour>
    <contour>
      <point x="285.0" y="354.5512985522207" type="curve" smooth="yes"/>
      <point x="231.10741571489532" y="354.5512985522207"/>
      <point x="193.0" y="382.908331518205"/>
      <point x="193.0" y="421.8269478283311" type="curve" smooth="yes"/>
      <point x="193.0" y="460.66728843852565"/>
      <point x="230.07146354187222" y="489.10259710444143"/>
      <point x="285.0" y="489.10259710444143" type="curve" smooth="yes"/>
      <point x="338.8110840445577" y="489.10259710444143"/>
      <point x="375.0" y="460.68670860883077"/>
      <point x="375.0" y="421.8269478283311" type="curve" smooth="yes"/>
      <point x="375.0" y="382.9671870478313"/>
      <point x="338.8110840445577" y="354.5512985522207"/>
    </contour>
    <contour>
      <point x="285.0" y="138.17662350913713" type="curve" smooth="yes"/>
      <point x="223.18609730651096" y="138.17662350913713"/>
      <point x="176.0" y="171.37992940291065"/>
      <point x="176.0" y="217.4730880654188" type="curve" smooth="yes"/>
      <point x="176.0" y="264.3609563600392"/>
      <point x="223.18609730651096" y="295.35533905932743"/>
      <point x="285.0" y="295.3553390593274" type="curve" smooth="yes"/>
      <point x="345.72035856038417" y="295.3553390593273"/>
      <point x="392.0" y="264.38440029418655"/>
      <point x="392.0" y="217.4730880654188" type="curve" smooth="yes"/>
      <point x="392.0" y="171.37992940291065"/>
      <point x="345.69001355360734" y="138.17662350913713"/>
    </contour>
    <contour>
      <point x="285.0" y="385.6639969244288" type="curve" smooth="yes"/>
      <point x="188.82660700047836" y="385.6639969244288"/>
      <point x="119.00000000000006" y="426.5401024289755"/>
      <point x="119.0" y="496.07315985291854" type="curve" smooth="yes"/>
      <point x="118.99999999999997" y="557.4775958967051"/>
      <point x="187.30614047663153" y="603.6538956566621"/>
      <point x="285.0" y="603.6538956566621" type="curve" smooth="yes"/>
      <point x="381.6083721953311" y="603.6538956566621"/>
      <point x="449.0" y="557.4775958967051"/>
      <point x="449.0" y="496.07315985291854" type="curve" smooth="yes"/>
      <point x="449.0" y="426.5748515831104"/>
      <point x="381.1253303343545" y="385.6639969244288"/>
    </contour>
    <contour>
      <point x="285.0" y="185.04668119422593" type="curve" smooth="yes"/>
      <point x="376.1922434469502" y="185.04668119422593"/>
      <point x="446.99999999999994" y="224.55765756859319"/>
      <point x="447.0" y="282.52691193458116" type="curve" smooth="yes"/>
      <point x="447.00000000000006" y="349.3291699743586"/>
      <point x="374.8416466053827" y="385.6639969244288"/>
      <point x="285.0" y="385.6639969244288" type="curve" smooth="yes"/>
      <point x="193.2600783491446" y="385.6639969244288"/>
      <point x="121.0" y="349.3625878122975"/>
      <point x="121.0" y="282.52691193458116" type="curve" smooth="yes"/>
      <point x="121.0" y="224.52865844184683"/>
      <point x="191.9189484829085" y="185.04668119422593"/>
    </contour>
    <contour>
      <point x="125.91857938439203" y="335.49671665583077" type="curve" smooth="yes"/>
      <point x="280.91857938439205" y="404.7931812121124" type="line" smooth="yes"/>
      <point x="283.5233515567945" y="405.9577070348355"/>
      <point x="286.5015226054595" y="405.9541081156261"/>
      <point x="289.10347267232385" y="404.7832903196152" type="curve" smooth="yes"/>
      <point x="443.10347267232385" y="335.48682576333357" type="line" smooth="yes"/>
      <point x="456.7824127651036" y="329.3316167548478"/>
      <point x="448.5754674204559" y="311.0930299644749"/>
      <point x="434.89652732767615" y="317.2482389729607" type="curve" smooth="yes"/>
      <point x="280.89652732767615" y="386.5447035292423" type="line"/>
      <point x="289.08142061560795" y="386.53481263674513" type="line"/>
      <point x="134.08142061560795" y="317.2383480804635" type="line" smooth="yes"/>
      <point x="120.38764418408246" y="311.11621715705155"/>
      <point x="112.22480295286654" y="329.37458573241884"/>
    </contour>
  </outline>
</glyph>
<glyph name="question" format="2">
  <advance width="523"/>
  <unicode hex="003F"/>
  <outline>
    <contour>
      <point x="498.0" y="433.84776310850236" type="curve" smooth="yes"/>
      <point x="498.0" y="307.6604147613236"/>
      <point x="296.0" y="312.91138229318005"/>
      <point x="296.0" y="254.94974746830584" type="curve" smooth="yes"/>
      <point x="296.0" y="249.42689996999792"/>
      <point x="291.52284749830795" y="244.94974746830584"/>
      <point x="286.0" y="244.94974746830584" type="curve" smooth="yes"/>
      <point x="179.0" y="244.94974746830584" type="line" smooth="yes"/>
      <point x="174.05318597818035" y="244.94974746830584"/>
      <point x="169.84974806776765" y="248.56665585505527"/>
      <point x="169.11187207432567" y="253.4581288422825" type="curve" smooth="yes"/>
      <point x="151.40712947898226" y="370.82509960787274"/>
      <point x="325.0" y="375.48919836124935"/>
      <point x="325.0" y="427.48380207782344" type="curve" smooth="yes"/>
      <point x="325.0" y="449.64673966814377"/>
      <point x="280.4348749493487" y="462.0315292925759"/>
      <point x="229.0" y="462.0315292925759" type="curve" smooth="yes"/>
      <point x="165.72238975177862" y="462.0315292925759"/>
      <point x="103.29389475348127" y="442.6464246226468"/>
      <point x="49.751301466524716" y="413.73489928788587" type="curve" smooth="yes"/>
      <point x="43.08865872987921" y="410.13725575865635"/>
      <point x="35.0" y="414.9621428826429"/>
      <point x="35.0" y="422.5340546095176" type="curve" smooth="yes"/>
      <point x="35.0" y="543.4493141924172" type="line" smooth="yes"/>
      <point x="35.0" y="548.1803570504011"/>
      <point x="38.31543177201218" y="552.2640356360849"/>
      <point x="42.945555729552034" y="553.2360020253678" type="curve" smooth="yes"/>
      <point x="107.69804623151013" y="566.8289954241238"/>
      <point x="173.32981314669357" y="572.541197284454"/>
      <point x="231.0" y="572.541197284454" type="curve" smooth="yes"/>
      <point x="397.28646730491243" y="572.541197284454"/>
      <point x="498.0" y="522.9706443152041"/>
    </contour>
    <contour>
      <point x="152.0" y="63.22330470336311" type="line" smooth="yes"/>
      <point x="146.47715250169207" y="63.22330470336311"/>
      <point x="142.0" y="67.70045720505517"/>
      <point x="142.0" y="73.22330470336311" type="curve" smooth="yes"/>
      <point x="142.0" y="187.06749647439727" type="line" smooth="yes"/>
      <point x="142.0" y="192.5903439727052"/>
      <point x="146.47715250169207" y="197.06749647439727"/>
      <point x="152.0" y="197.06749647439727" type="curve" smooth="yes"/>
      <point x="313.0" y="197.06749647439727" type="line" smooth="yes"/>
      <point x="318.52284749830795" y="197.06749647439727"/>
      <point x="323.0" y="192.5903439727052"/>
      <point x="323.0" y="187.06749647439727" type="curve" smooth="yes"/>
      <point x="323.0" y="73.22330470336311" type="line" smooth="yes"/>
      <point x="323.0" y="67.70045720505517"/>
      <point x="318.52284749830795" y="63.22330470336311"/>
      <point x="313.0" y="63.22330470336311" type="curve" smooth="yes"/>
    </contour>
    <contour>
      <point x="478.0" y="433.84776310850236" type="curve" smooth="yes"/>
      <point x="478.0" y="512.8411012116588"/>
      <point x="378.3866526299945" y="552.541197284454"/>
      <point x="231.0" y="552.541197284454" type="curve" smooth="yes"/>
      <point x="174.6464861217452" y="552.541197284454"/>
      <point x="110.3285651162077" y="546.9452769618015"/>
      <point x="47.054444270447966" y="533.6626263594666" type="curve"/>
      <point x="55.0" y="543.4493141924172" type="line"/>
      <point x="55.0" y="422.5340546095176" type="line"/>
      <point x="40.248698533475284" y="431.3332099311494" type="line"/>
      <point x="96.6820397663362" y="461.8056595197377"/>
      <point x="162.3060512702553" y="482.0315292925759"/>
      <point x="229.0" y="482.0315292925759" type="curve" smooth="yes"/>
      <point x="304.10913249710103" y="482.0315292925759"/>
      <point x="345.0" y="459.84781613707065"/>
      <point x="345.0" y="427.48380207782344" type="curve" smooth="yes"/>
      <point x="345.0" y="363.32319139263404"/>
      <point x="174.5405232922706" y="351.55344606367214"/>
      <point x="188.88812792567433" y="256.44136609432917" type="curve"/>
      <point x="179.0" y="264.9497474683059" type="line"/>
      <point x="286.0" y="264.9497474683059" type="line"/>
      <point x="276.0" y="254.94974746830584" type="line"/>
      <point x="276.0" y="325.83276413246176"/>
      <point x="478.0" y="330.6633142993856"/>
    </contour>
    <contour>
      <point x="152.0" y="83.22330470336311" type="line"/>
      <point x="313.0" y="83.22330470336311" type="line"/>
      <point x="303.0" y="73.22330470336311" type="line"/>
      <point x="303.0" y="187.06749647439727" type="line"/>
      <point x="313.0" y="177.06749647439727" type="line"/>
      <point x="152.0" y="177.06749647439727" type="line"/>
      <point x="162.0" y="187.06749647439727" type="line"/>
      <point x="162.0" y="73.22330470336311" type="line"/>
    </contour>
    <contour>
      <point x="150.25922344044304" y="196.9148157527439" type="curve" smooth="yes"/>
      <point x="230.25922344044304" y="211.0569513764748" type="line" smooth="yes"/>
      <point x="234.2543626061802" y="211.76319887544398"/>
      <point x="238.28027981588423" y="209.9856225218698"/>
      <point x="240.44992145215366" y="206.5574192528711" type="curve" smooth="yes"/>
      <point x="321.44992145215366" y="78.57109185810603" type="line" smooth="yes"/>
      <point x="329.471602184268" y="65.89620967987554"/>
      <point x="312.5717592799607" y="55.2006353703897"/>
      <point x="304.55007854784634" y="67.8755175486202" type="curve" smooth="yes"/>
      <point x="223.55007854784634" y="195.86184494338528" type="line"/>
      <point x="233.74077655955696" y="191.36231281978158" type="line"/>
      <point x="153.74077655955696" y="177.22017719605066" type="line" smooth="yes"/>
      <point x="138.96979764203704" y="174.6090123567152"/>
      <point x="135.4882445229231" y="194.30365091340843"/>
    </contour>
    <contour>
      <point x="143.52027142979767" y="78.52370123340633" type="curve" smooth="yes"/>
      <point x="223.52027142979767" y="206.51002862817143" type="line" smooth="yes"/>
      <point x="225.6774085820435" y="209.96107940070576"/>
      <point x="229.71080606947675" y="211.760583869256"/>
      <point x="233.71992508169512" y="211.06061467416376" type="curve" smooth="yes"/>
      <point x="314.7199250816951" y="196.91847905043284" type="line" smooth="yes"/>
      <point x="329.49639894574847" y="194.33859142789012"/>
      <point x="326.0565487823582" y="174.636626275819"/>
      <point x="311.2800749183049" y="177.2165138983617" type="curve" smooth="yes"/>
      <point x="230.28007491830488" y="191.35864952209263" type="line"/>
      <point x="240.47972857020233" y="195.90923556808497" type="line"/>
      <point x="160.47972857020233" y="67.9229081733199" type="line" smooth="yes"/>
      <point x="152.5291337751375" y="55.20331531801638"/>
      <point x="135.56967663473284" y="65.80410837810281"/>
    </contour>
    <contour>
      <point x="276.8657182793578" y="250.8797477818266" type="curve" smooth="yes"/>
      <point x="230.86571827935776" y="354.1173378350625" type="line"/>
      <point x="248.60941249145864" y="353.10029353196234" type="line"/>
      <point x="187.60941249145864" y="249.86270347872644" type="line" smooth="yes"/>
      <point x="179.97884650708954" y="236.94858474153847"/>
      <point x="162.76002152417226" y="247.12267272069732"/>
      <point x="170.39058750854136" y="260.0367914578853" type="curve" smooth="yes"/>
      <point x="231.39058750854136" y="363.27438151112113" type="line" smooth="yes"/>
      <point x="235.52290063985555" y="370.26798887214113"/>
      <point x="245.82813512876396" y="369.67730691472167"/>
      <point x="249.13428172064224" y="362.257337208021" type="curve" smooth="yes"/>
      <point x="295.1342817206422" y="259.0197471547851" type="line" smooth="yes"/>
      <point x="301.2392812503611" y="245.31832457382174"/>
      <point x="282.9707178090767" y="237.17832520086327"/>
    </contour>
    <contour>
      <point x="104.6529352884981" y="582.1613551223303" type="curve" smooth="yes"/>
      <point x="146.44835908454925" y="592.2529060062949"/>
      <point x="189.22397678434038" y="597.9970414071697"/>
      <point x="230.0" y="597.9970414071697" type="curve" smooth="yes"/>
      <point x="349.76391666604627" y="597.9970414071697"/>
      <point x="422.0" y="561.7800000483174"/>
      <point x="422.0" y="501.7300141024109" type="curve" smooth="yes"/>
      <point x="422.0" y="421.30123559932554"/>
      <point x="279.47284138341234" y="403.8067508168456"/>
      <point x="248.54216301923103" y="352.98815961028674" type="curve" smooth="yes"/>
      <point x="240.7433961523485" y="340.17491508144025"/>
      <point x="223.65907011388646" y="350.57327090395023"/>
      <point x="231.45783698076897" y="363.3865154327967" type="curve" smooth="yes"/>
      <point x="268.774060768269" y="424.69645179117504"/>
      <point x="402.0" y="435.06247685167796"/>
      <point x="402.0" y="501.7300141024109" type="curve" smooth="yes"/>
      <point x="402.0" y="551.7056667139915"/>
      <point x="329.6716285678437" y="577.9970414071697"/>
      <point x="230.0" y="577.9970414071697" type="curve" smooth="yes"/>
      <point x="190.78740191000128" y="577.9970414071697"/>
      <point x="149.53997775375072" y="572.4246522258842"/>
      <point x="109.3470647115019" y="562.720029319801" type="curve" smooth="yes"/>
      <point x="94.76607035960495" y="559.1994322525481"/>
      <point x="90.07194093660115" y="578.6407580550774"/>
    </contour>
    <contour>
      <point x="35.759171202935036" y="426.3559760037034" type="curve" smooth="yes"/>
      <point x="97.75917120293504" y="576.2626136152514" type="line"/>
      <point x="111.23581747038725" y="563.3821133944747" type="line"/>
      <point x="49.235817470387246" y="534.3907353658262" type="line" smooth="yes"/>
      <point x="35.64794923050079" y="528.0370091602454"/>
      <point x="27.1763142897263" y="546.1541668134273"/>
      <point x="40.764182529612754" y="552.5078930190082" type="curve" smooth="yes"/>
      <point x="102.76418252961275" y="581.4992710476566" type="line" smooth="yes"/>
      <point x="111.02885187476546" y="585.363854164868"/>
      <point x="119.72779040448496" y="577.0497174405716"/>
      <point x="116.24082879706496" y="568.6187708268799" type="curve" smooth="yes"/>
      <point x="54.240828797064964" y="418.71213321533185" type="line" smooth="yes"/>
      <point x="48.50794670578632" y="404.8508900197344"/>
      <point x="30.02628911165639" y="412.49473280810594"/>
    </contour>
  </outline>
</glyph>
<glyph name="G" format="2">
  <advance width="670"/>
  <unicode hex="0047"/>
  <outline>
    <contour>
      <point x="617.9998024749884" y="101.57042864540804" type="curve" smooth="yes"/>
      <point x="618.0276938369559" y="97.13294012907359"/>
      <point x="615.12786861223" y="93.20784274382015"/>
      <point x="610.8780506762463" y="91.93068583424967" type="curve" smooth="yes"/>
      <point x="529.896967242235" y="67.59421970553987"/>
      <point x="454.96881989108624" y="52.61670298556486"/>
      <point x="375.0" y="52.6167029855649" type="curve" smooth="yes"/>
      <point x="161.43138444915832" y="52.61670298556503"/>
      <point x="26.999999999999993" y="164.94705837176977"/>
      <point x="27.0" y="309.39696961967" type="curve" smooth="yes"/>
      <point x="27.000000000000007" y="461.7195153105706"/>
      <point x="169.49128557938454" y="572.541197284454"/>
      <point x="388.0" y="572.541197284454" type="curve" smooth="yes"/>
      <point x="455.8555682046724" y="572.541197284454"/>
      <point x="525.647689948294" y="561.8386394978988"/>
      <point x="594.5160278276632" y="543.9352318789473" type="curve" smooth="yes"/>
      <point x="598.9233533131116" y="542.7894782989264"/>
      <point x="602.0" y="538.8107452254113"/>
      <point x="602.0" y="534.2569260369921" type="curve" smooth="yes"/>
      <point x="602.0" y="415.4629867976521" type="line" smooth="yes"/>
      <point x="602.0" y="407.60130083876174"/>
      <point x="593.3460628331336" y="402.8141045954387"/>
      <point x="586.6861763540796" y="406.99166586995386" type="curve" smooth="yes"/>
      <point x="526.3290711942377" y="444.8519966654742"/>
      <point x="454.1186204249803" y="462.73863607376245"/>
      <point x="385.0" y="462.73863607376245" type="curve" smooth="yes"/>
      <point x="269.20790631489297" y="462.73863607376245"/>
      <point x="199.00000000000003" y="406.9621080883756"/>
      <point x="199.0" y="314.34671708797583" type="curve" smooth="yes"/>
      <point x="198.99999999999997" y="221.68499522664547"/>
      <point x="269.14998130554574" y="163.83347775862953"/>
      <point x="385.0" y="163.83347775862953" type="curve" smooth="yes"/>
      <point x="412.29860124743055" y="163.83347775862953"/>
      <point x="440.58298392098555" y="166.58889873438875"/>
      <point x="468.85653521296706" y="172.79344282477052" type="curve"/>
      <point x="461.0105247676876" y="162.56718892202454" type="line"/>
      <point x="456.255836384833" y="266.1190187787431"/>
      <point x="449.1378124254842" y="293.9701532725258"/>
      <point x="433.92280960034947" y="314.8150021397874" type="curve" smooth="yes"/>
      <point x="429.09968083529424" y="321.42278206138116"/>
      <point x="433.81920990511793" y="330.71067811865476"/>
      <point x="442.0" y="330.71067811865476" type="curve" smooth="yes"/>
      <point x="620.0" y="330.71067811865476" type="line" smooth="yes"/>
      <point x="626.7531503286646" y="330.71067811865476"/>
      <point x="631.564660988812" y="324.1550438912451"/>
      <point x="629.5399809200572" y="317.7125513626713" type="curve" smooth="yes"/>
      <point x="621.6738925150158" y="292.68281132589254"/>
      <point x="617.0165414243583" y="258.0063038752755"/>
    </contour>
    <contour>
      <point x="587.2756063968324" y="525.4432942610243" type="curve" smooth="yes"/>
      <point x="525.2756063968324" y="558.677312976792" type="line"/>
      <point x="539.2595890027577" y="571.2671877931385" type="line"/>
      <point x="601.2595890027577" y="419.2392298380309" type="line" smooth="yes"/>
      <point x="606.9239535633259" y="405.3498463338944"/>
      <point x="588.4047755578105" y="397.7973602531368"/>
      <point x="582.7404109972423" y="411.6867437572733" type="curve" smooth="yes"/>
      <point x="520.7404109972423" y="563.714701712381" type="line" smooth="yes"/>
      <point x="517.2024375801965" y="572.3900383880735"/>
      <point x="526.4668755892116" y="580.7308750484309"/>
      <point x="534.7243936031676" y="576.3045765287276" type="curve" smooth="yes"/>
      <point x="596.7243936031676" y="543.0705578129599" type="line" smooth="yes"/>
      <point x="609.9448412671193" y="535.9839674082084"/>
      <point x="600.496054060784" y="518.3567038562728"/>
    </contour>
    <contour>
      <point x="598.0001975250116" y="101.44472325624199" type="line"/>
      <point x="596.9838638184045" y="263.1424258315674"/>
      <point x="602.3293494270861" y="297.8371724625861"/>
      <point x="610.4600190799428" y="323.7088048746382" type="curve"/>
      <point x="620.0" y="310.71067811865476" type="line"/>
      <point x="442.0" y="310.71067811865476" type="line"/>
      <point x="450.07719039965053" y="326.6063540975221" type="line"/>
      <point x="466.80991057865054" y="303.68220302912806"/>
      <point x="475.7605001763749" y="277.3658095039131"/>
      <point x="480.9894752323124" y="163.48454290608473" type="curve" smooth="yes"/>
      <point x="481.212829375371" y="158.62013784786876"/>
      <point x="477.8998157890666" y="154.30205563868952"/>
      <point x="473.14346478703294" y="153.25828900333875" type="curve" smooth="yes"/>
      <point x="443.4174365058582" y="146.73500329374372"/>
      <point x="413.7009928232032" y="143.83347775862953"/>
      <point x="385.0" y="143.83347775862953" type="curve" smooth="yes"/>
      <point x="256.87894233676167" y="143.83347775862953"/>
      <point x="178.99999999999997" y="211.87010168852785"/>
      <point x="179.0" y="314.34671708797583" type="curve" smooth="yes"/>
      <point x="179.00000000000003" y="416.82333248742384"/>
      <point x="256.87894233676167" y="482.73863607376245"/>
      <point x="385.0" y="482.73863607376245" type="curve" smooth="yes"/>
      <point x="457.8867383844889" y="482.73863607376245"/>
      <point x="533.6662492820003" y="463.85865819525606"/>
      <point x="597.3138236459204" y="423.9343077253503" type="curve"/>
      <point x="582.0" y="415.4629867976521" type="line"/>
      <point x="582.0" y="534.2569260369921" type="line"/>
      <point x="589.4839721723368" y="524.5786201950369" type="line"/>
      <point x="522.3550912334574" y="542.0298286234729"/>
      <point x="454.14169151330765" y="552.541197284454"/>
      <point x="388.0" y="552.541197284454" type="curve" smooth="yes"/>
      <point x="182.5445057634444" y="552.541197284454"/>
      <point x="47.00000000000001" y="452.6201082998621"/>
      <point x="47.0" y="309.39696961967" type="curve" smooth="yes"/>
      <point x="46.99999999999999" y="173.84568378042508"/>
      <point x="174.58796649489264" y="72.61670298556501"/>
      <point x="375.0" y="72.6167029855649" type="curve" smooth="yes"/>
      <point x="453.0269781092235" y="72.61670298556486"/>
      <point x="526.1072879473251" y="87.33894984661696"/>
      <point x="605.1219493237537" y="111.08446606740036" type="curve"/>
    </contour>
    <contour>
      <point x="439.2515674348493" y="330.32556857225944" type="curve" smooth="yes"/>
      <point x="533.2515674348492" y="357.19562625734824" type="line" smooth="yes"/>
      <point x="535.1498513939882" y="357.73825391144123"/>
      <point x="537.1662830583745" y="357.7068263913425"/>
      <point x="539.046734633332" y="357.10530445928146" type="curve" smooth="yes"/>
      <point x="623.046734633332" y="330.23524677419266" type="line" smooth="yes"/>
      <point x="637.3335876166389" y="325.66514482419456"/>
      <point x="631.2401183499749" y="306.61600751311875"/>
      <point x="616.953265366668" y="311.18610946311685" type="curve" smooth="yes"/>
      <point x="532.953265366668" y="338.05616714820565" type="line"/>
      <point x="538.7484325651508" y="337.96584535013886" type="line"/>
      <point x="444.7484325651507" y="311.09578766505007" type="line" smooth="yes"/>
      <point x="430.32609688474366" y="306.97313881732396"/>
      <point x="424.8292317544422" y="326.20291972453333"/>
    </contour>
    <contour>
      <point x="527.1392159743451" y="557.9088826177829" type="curve" smooth="yes"/>
      <point x="483.09118130225795" y="571.0596963128248"/>
      <point x="430.0480346720872" y="577.9970414071697"/>
      <point x="386.0" y="577.9970414071697" type="curve" smooth="yes"/>
      <point x="226.4022849391288" y="577.9970414071697"/>
      <point x="123.00000000000001" y="500.54754714370785"/>
      <point x="123.0" y="382.9360748630709" type="curve" smooth="yes"/>
      <point x="122.99999999999999" y="268.78088423026486"/>
      <point x="222.40398640151875" y="189.28932188134533"/>
      <point x="380.0" y="189.28932188134524" type="curve" smooth="yes"/>
      <point x="432.9899841581605" y="189.28932188134522"/>
      <point x="485.9876080120415" y="197.6228912825281"/>
      <point x="537.0150001643443" y="213.58215561704054" type="curve"/>
      <point x="530.0009244280121" y="203.90208972013303" type="line"/>
      <point x="529.004835265177" y="277.15359549767095"/>
      <point x="528.0183735245625" y="319.3880831875161"/>
      <point x="526.0261951988925" y="346.8573978540929" type="curve" smooth="yes"/>
      <point x="524.9411882744165" y="361.81810505575413"/>
      <point x="544.8887978766314" y="363.26478095505547"/>
      <point x="545.9738048011075" y="348.3040737533942" type="curve" smooth="yes"/>
      <point x="547.9821765997157" y="320.6114740535711"/>
      <point x="548.9948896726839" y="278.0209612584773"/>
      <point x="549.9990755719879" y="204.17402872561573" type="curve" smooth="yes"/>
      <point x="550.0592180864417" y="199.75120202559285"/>
      <point x="547.2065785261864" y="195.81429858151395"/>
      <point x="542.9849998356557" y="194.49396282870822" type="curve" smooth="yes"/>
      <point x="490.0033915207679" y="177.92350025360403"/>
      <point x="435.0193624808451" y="169.28932188134522"/>
      <point x="380.0" y="169.28932188134524" type="curve" smooth="yes"/>
      <point x="209.60524355287086" y="169.28932188134533"/>
      <point x="102.99999999999999" y="259.5100727650075"/>
      <point x="103.0" y="382.9360748630709" type="curve" smooth="yes"/>
      <point x="103.00000000000001" y="509.97195194217994"/>
      <point x="213.61345199215364" y="597.9970414071697"/>
      <point x="386.0" y="597.9970414071697" type="curve" smooth="yes"/>
      <point x="431.96484100233096" y="597.9970414071697"/>
      <point x="486.89594302332387" y="590.7960949901653"/>
      <point x="532.8607840256549" y="577.0730068877367" type="curve" smooth="yes"/>
      <point x="547.2338772281203" y="572.7818308492544"/>
      <point x="541.5123091768105" y="553.6177065793006"/>
    </contour>
    <contour>
      <point x="465.89061145424415" y="171.622036496849" type="curve" smooth="yes"/>
      <point x="534.8906114542442" y="212.63422980566875" type="line" smooth="yes"/>
      <point x="539.4733631762238" y="215.35812400143908"/>
      <point x="545.3871713373978" y="214.0079939225892"/>
      <point x="548.3337462322972" y="209.56514468771678" type="curve" smooth="yes"/>
      <point x="616.3337462322972" y="107.03466141566741" type="line" smooth="yes"/>
      <point x="624.6243744295608" y="94.5340420672216"/>
      <point x="607.9568819649663" y="83.4798711375368"/>
      <point x="599.6662537677028" y="95.98049048598261" type="curve" smooth="yes"/>
      <point x="531.6662537677028" y="198.51097375803198" type="line"/>
      <point x="545.1093885457558" y="195.44188864008" type="line"/>
      <point x="476.10938854575585" y="154.42969533126026" type="line" smooth="yes"/>
      <point x="463.21513267156433" y="146.76561251262652"/>
      <point x="452.99635558005264" y="163.95795367821526"/>
    </contour>
  </outline>
</glyph>
<glyph name="J" format="2">
  <advance width="467"/>
  <unicode hex="004A"/>
  <outline>
    <contour>
      <point x="240.0" y="240.10050506338834" type="curve" smooth="yes"/>
      <point x="240.0" y="320.0035713374682" type="line" smooth="yes"/>
      <point x="240.0" y="481.94900595463315"/>
      <point x="233.9902626792781" y="521.8688457416187"/>
      <point x="214.9048101792781" y="548.1849788669078" type="curve" smooth="yes"/>
      <point x="210.1101570487079" y="554.7961257639316"/>
      <point x="214.83324042618406" y="564.0559159102154"/>
      <point x="223.0" y="564.0559159102154" type="curve" smooth="yes"/>
      <point x="420.0" y="564.0559159102154" type="line" smooth="yes"/>
      <point x="428.1667595738159" y="564.0559159102154"/>
      <point x="432.88984295129217" y="554.7961257639316"/>
      <point x="428.09518982072194" y="548.1849788669078" type="curve" smooth="yes"/>
      <point x="409.0097373207219" y="521.8688457416187"/>
      <point x="403.0" y="481.94900595463315"/>
      <point x="403.0" y="320.0035713374682" type="curve" smooth="yes"/>
      <point x="403.0" y="236.5649711574556" type="line" smooth="yes"/>
      <point x="403.0" y="134.51552446589514"/>
      <point x="316.71842026367506" y="57.29324026889269"/>
      <point x="165.07522184942604" y="56.15251981183138" type="curve" smooth="yes"/>
      <point x="121.37410889364837" y="55.82378265733783"/>
      <point x="70.59705494860358" y="61.869689930823675"/>
      <point x="17.7477022050347" y="74.08684968095939" type="curve" smooth="yes"/>
      <point x="13.212174223629663" y="75.1353255283155"/>
      <point x="9.999999999999998" y="79.17476779029359"/>
      <point x="10.0" y="83.82990642116133" type="curve"/>
      <point x="10.0" y="204.74516600406096" type="line"/>
      <point x="10.000000000000002" y="212.94582086940773"/>
      <point x="19.32772371027438" y="217.66022639148494"/>
      <point x="25.930568066504787" y="212.79677220459968" type="curve" smooth="yes"/>
      <point x="71.19433771705154" y="179.4568571400503"/>
      <point x="113.75777913235393" y="166.6619048833757"/>
      <point x="153.0" y="166.6619048833757" type="curve" smooth="yes"/>
      <point x="207.1492576678401" y="166.6619048833757"/>
      <point x="240.0" y="189.27144963173518"/>
    </contour>
    <contour>
      <point x="260.0" y="240.10050506338834" type="line" smooth="yes"/>
      <point x="260.0" y="178.31786368371309"/>
      <point x="218.81834226619205" y="146.6619048833757"/>
      <point x="153.0" y="146.6619048833757" type="curve" smooth="yes"/>
      <point x="110.25140208749768" y="146.6619048833757"/>
      <point x="63.377616995739274" y="160.37465144361178"/>
      <point x="14.069431933495213" y="196.69355980352225" type="curve"/>
      <point x="30.0" y="204.74516600406096" type="line"/>
      <point x="30.0" y="83.82990642116133" type="line"/>
      <point x="22.2522977949653" y="93.57296316136326" type="line"/>
      <point x="73.40674872748247" y="81.74761305716373"/>
      <point x="122.62517896267748" y="75.83375956070762"/>
      <point x="164.92477815057396" y="76.15195397116389" type="curve" smooth="yes"/>
      <point x="303.2277887696617" y="77.19232422934974"/>
      <point x="383.0" y="143.4929055650382"/>
      <point x="383.0" y="236.5649711574556" type="curve" smooth="yes"/>
      <point x="383.0" y="320.0035713374682" type="line" smooth="yes"/>
      <point x="383.0" y="496.9469282358926"/>
      <point x="391.0518355878135" y="531.1735574575291"/>
      <point x="411.90481017927806" y="559.9268529535229" type="curve"/>
      <point x="420.0" y="544.0559159102154" type="line"/>
      <point x="223.0" y="544.0559159102154" type="line"/>
      <point x="231.0951898207219" y="559.9268529535229" type="line"/>
      <point x="251.94816441218651" y="531.1735574575291"/>
      <point x="260.0" y="496.9469282358926"/>
      <point x="260.0" y="320.0035713374682" type="curve" smooth="yes"/>
    </contour>
    <contour>
      <point x="220.38061815196815" y="563.7067624396242" type="curve" smooth="yes"/>
      <point x="319.3806181519682" y="590.576820124713" type="line" smooth="yes"/>
      <point x="321.1042859213327" y="591.044648936761"/>
      <point x="322.92179403520555" y="591.0423064354784"/>
      <point x="324.64425015467447" y="590.5700360753747" type="curve" smooth="yes"/>
      <point x="422.64425015467447" y="563.6999783902859" type="line" smooth="yes"/>
      <point x="437.11034387478026" y="559.7336031582743"/>
      <point x="431.8218435654313" y="540.4454781981333"/>
      <point x="417.35574984532553" y="544.4118534301449" type="curve" smooth="yes"/>
      <point x="319.35574984532553" y="571.2819111152337" type="line"/>
      <point x="324.6193818480318" y="571.2751270658954" type="line"/>
      <point x="225.61938184803185" y="544.4050693808066" type="line" smooth="yes"/>
      <point x="211.14311205391868" y="540.4759966087588"/>
      <point x="205.90434835785499" y="559.7776896675764"/>
    </contour>
    <contour>
      <point x="332.0" y="580.9259735953042" type="curve" smooth="yes"/>
      <point x="332.0" y="309.39696961966996" type="line" smooth="yes"/>
      <point x="332.0" y="226.76587816933684"/>
      <point x="268.47815059935004" y="172.72714259940452"/>
      <point x="159.0556767849121" y="172.1179040025115" type="curve" smooth="yes"/>
      <point x="134.31922460222185" y="171.98017725502956"/>
      <point x="107.53478270542938" y="175.72461460204343"/>
      <point x="79.70584266129438" y="182.28395867485733" type="curve" smooth="yes"/>
      <point x="65.10591475952575" y="185.72519468291574"/>
      <point x="69.69422943693698" y="205.19176521860726"/>
      <point x="84.29415733870562" y="201.75052921054885" type="curve" smooth="yes"/>
      <point x="110.46065896317258" y="195.58302563101907"/>
      <point x="135.68557116792402" y="191.98809474897348"/>
      <point x="158.9443232150879" y="192.1175940096713" type="curve" smooth="yes"/>
      <point x="255.44501440554947" y="192.65488716025195"/>
      <point x="312.0" y="236.52384620352535"/>
      <point x="312.0" y="309.39696961966996" type="curve" smooth="yes"/>
      <point x="312.0" y="580.9259735953042" type="line" smooth="yes"/>
      <point x="312.0" y="595.9259735953042"/>
      <point x="332.0" y="595.9259735953042"/>
    </contour>
    <contour>
      <point x="11.32374747114307" y="88.80209326957157" type="curve" smooth="yes"/>
      <point x="73.32374747114307" y="196.98943079111334" type="line"/>
      <point x="79.98904647024061" y="182.22152723073413" type="line"/>
      <point x="17.98904647024061" y="194.949449292092" type="line" smooth="yes"/>
      <point x="3.2954714022871485" y="197.9658795867311"/>
      <point x="7.31737846180593" y="217.55731301066902"/>
      <point x="22.01095352975939" y="214.54088271602993" type="curve" smooth="yes"/>
      <point x="84.01095352975939" y="201.81296065467205" type="line" smooth="yes"/>
      <point x="90.68129392164848" y="200.44361270901572"/>
      <point x="94.06203631029746" y="192.9531043965133"/>
      <point x="90.67625252885693" y="187.04505709429284" type="curve" smooth="yes"/>
      <point x="28.676252528856928" y="78.85771957275108" type="line" smooth="yes"/>
      <point x="21.217972256241573" y="65.84334077946568"/>
      <point x="3.865467198527714" y="75.78771447628617"/>
    </contour>
  </outline>
</glyph>
<glyph name="grave" format="2">
  <advance width="408"/>
  <unicode hex="0060"/>
  <outline>
    <contour>
      <point x="328.0" y="496.17366491630685" type="line"/>
      <point x="319.99346168873336" y="480.1823925747904" type="line"/>
      <point x="210.99346168873336" y="625.8463894992193" type="line"/>
      <point x="219.0" y="621.8376618407357" type="line"/>
      <point x="60.0" y="621.8376618407357" type="line"/>
      <point x="67.359583940329" y="638.6079295034837" type="line"/>
      <point x="201.359583940329" y="492.9439325790549" type="line"/>
      <point x="194.0" y="496.17366491630685" type="line"/>
    </contour>
    <contour>
      <point x="328.0" y="476.17366491630685" type="curve" smooth="yes"/>
      <point x="194.0" y="476.17366491630685" type="line" smooth="yes"/>
      <point x="191.20308896651366" y="476.17366491630685"/>
      <point x="188.53399969223057" y="477.3449871011013"/>
      <point x="186.640416059671" y="479.4033972535588" type="curve" smooth="yes"/>
      <point x="52.640416059671" y="625.0673941779877" type="line" smooth="yes"/>
      <point x="46.74388218988047" y="631.4771903830173"/>
      <point x="51.290545420774166" y="641.8376618407357"/>
      <point x="60.0" y="641.8376618407357" type="curve" smooth="yes"/>
      <point x="219.0" y="641.8376618407357" type="line" smooth="yes"/>
      <point x="222.15141089275133" y="641.8376618407357"/>
      <point x="225.11844221941718" y="640.3521233869877"/>
      <point x="227.00653831126664" y="637.828934182252" type="curve" smooth="yes"/>
      <point x="336.00653831126664" y="492.1649372578233" type="line" smooth="yes"/>
      <point x="340.9406090265968" y="485.5712082532107"/>
      <point x="336.2354305297384" y="476.17366491630685"/>
    </contour>
    <contour>
      <point x="223.31233426201572" y="587.2586008627513" type="curve" smooth="yes"/>
      <point x="163.31233426201572" y="659.3834925437791" type="line" smooth="yes"/>
      <point x="153.7193920711495" y="670.9149911507556"/>
      <point x="169.09472354711806" y="683.7055807385772"/>
      <point x="178.68766573798428" y="672.1740821316007" type="curve" smooth="yes"/>
      <point x="238.68766573798428" y="600.049190450573" type="line" smooth="yes"/>
      <point x="248.28060792885046" y="588.5176918435965"/>
      <point x="232.9052764528819" y="575.7271022557749"/>
    </contour>
    <contour>
      <point x="57.075887450569525" y="641.400588474265" type="curve" smooth="yes"/>
      <point x="168.07588745056952" y="675.3417139712192" type="line" smooth="yes"/>
      <point x="171.03522457172286" y="676.2466079587584"/>
      <point x="174.2467776276651" y="675.7304175740791"/>
      <point x="176.77350269189625" y="673.9437531469672" type="curve" smooth="yes"/>
      <point x="224.77350269189625" y="640.002627650013" type="line" smooth="yes"/>
      <point x="237.02095140581216" y="631.3423736121686"/>
      <point x="225.47394602201965" y="615.012441993614"/>
      <point x="213.22649730810375" y="623.6726960314584" type="curve" smooth="yes"/>
      <point x="165.22649730810375" y="657.6138215284126" type="line"/>
      <point x="173.92411254943048" y="656.2158607041606" type="line"/>
      <point x="62.924112549430475" y="622.2747352072064" type="line" smooth="yes"/>
      <point x="48.57972259913659" y="617.8885663830607"/>
      <point x="42.73149750027564" y="637.0144196501193"/>
    </contour>
    <contour>
      <point x="320.57626277179264" y="479.473804800862" type="curve" smooth="yes"/>
      <point x="223.57626277179264" y="586.9540355412173" type="line"/>
      <point x="240.45541351957976" y="590.3988756607561" type="line"/>
      <point x="203.45541351957976" y="482.9186449204008" type="line" smooth="yes"/>
      <point x="198.57288352572073" y="468.7355246410312"/>
      <point x="179.6620564865612" y="475.24556463284324"/>
      <point x="184.54458648042024" y="489.4286849122129" type="curve" smooth="yes"/>
      <point x="221.54458648042024" y="596.9089156525682" type="line" smooth="yes"/>
      <point x="224.0235592849496" y="604.1100121128353"/>
      <point x="233.32122755354231" y="606.0075590420853"/>
      <point x="238.42373722820736" y="600.353755772107" type="curve" smooth="yes"/>
      <point x="335.42373722820736" y="492.8735250317517" type="line" smooth="yes"/>
      <point x="345.4735274013746" y="481.7379191894407"/>
      <point x="330.6260529449599" y="468.338198958551"/>
    </contour>
  </outline>
</glyph>
<glyph name="asciitilde" format="2">
  <advance width="639"/>
  <unicode hex="007E"/>
  <outline>
    <contour>
      <point x="418.0" y="199.1888168179569" type="curve" smooth="yes"/>
      <point x="521.1966311271327" y="199.1888168179569"/>
      <point x="593.0692115023261" y="262.5840562932361"/>
      <point x="574.1340498276226" y="377.06155575028225" type="curve"/>
      <point x="584.0" y="368.69343417595167" type="line"/>
      <point x="479.0" y="368.69343417595167" type="line"/>
      <point x="488.9505423537697" y="377.70010297950444" type="line"/>
      <point x="482.2038358470604" y="310.1160090906019"/>
      <point x="462.48023904025627" y="284.5477272147525"/>
      <point x="422.0" y="284.5477272147525" type="curve" smooth="yes"/>
      <point x="357.9394711683808" y="284.5477272147525"/>
      <point x="335.6150356497801" y="373.6431816442575"/>
      <point x="221.0" y="373.6431816442575" type="curve" smooth="yes"/>
      <point x="117.80336887286691" y="373.6431816442575"/>
      <point x="45.93078849767414" y="310.24794216897834"/>
      <point x="64.86595017237745" y="195.77044271193216" type="curve"/>
      <point x="55.0" y="204.13856428626275" type="line"/>
      <point x="160.0" y="204.13856428626275" type="line"/>
      <point x="150.04945764623028" y="195.13189548270998" type="line"/>
      <point x="156.79616415293967" y="262.7159893716125"/>
      <point x="176.5197609597439" y="288.2842712474619"/>
      <point x="217.0" y="288.2842712474619" type="curve" smooth="yes"/>
      <point x="281.0605288316192" y="288.2842712474619"/>
      <point x="303.3849643502199" y="199.1888168179569"/>
    </contour>
    <contour>
      <point x="418.0" y="179.1888168179569" type="curve" smooth="yes"/>
      <point x="290.8020122877779" y="179.1888168179569"/>
      <point x="274.72336698629124" y="268.2842712474619"/>
      <point x="217.0" y="268.2842712474619" type="curve" smooth="yes"/>
      <point x="185.73181335131545" y="268.2842712474619"/>
      <point x="175.1619067952172" y="245.34927418005947"/>
      <point x="169.95054235376972" y="193.14523308981552" type="curve" smooth="yes"/>
      <point x="169.44015181532058" y="188.03247443694514"/>
      <point x="165.13817083642022" y="184.13856428626275"/>
      <point x="160.0" y="184.13856428626275" type="curve" smooth="yes"/>
      <point x="55.0" y="184.13856428626275" type="line" smooth="yes"/>
      <point x="50.10696543806911" y="184.13856428626275"/>
      <point x="45.93253358138952" y="187.67924234262026"/>
      <point x="45.13404982762255" y="192.50668586059334" type="curve" smooth="yes"/>
      <point x="24.067508579980405" y="319.87000103421883"/>
      <point x="106.18735020035037" y="393.6431816442575"/>
      <point x="221.0" y="393.6431816442575" type="curve" smooth="yes"/>
      <point x="348.1979877122221" y="393.6431816442575"/>
      <point x="364.27663301370876" y="304.5477272147525"/>
      <point x="422.0" y="304.5477272147525" type="curve" smooth="yes"/>
      <point x="453.2681866486846" y="304.5477272147525"/>
      <point x="463.8380932047829" y="327.48272428215495"/>
      <point x="469.0494576462303" y="379.6867653723989" type="curve" smooth="yes"/>
      <point x="469.5598481846794" y="384.79952402526925"/>
      <point x="473.8618291635798" y="388.69343417595167"/>
      <point x="479.0" y="388.69343417595167" type="curve" smooth="yes"/>
      <point x="584.0" y="388.69343417595167" type="line" smooth="yes"/>
      <point x="588.8930345619308" y="388.69343417595167"/>
      <point x="593.0674664186105" y="385.152756119594"/>
      <point x="593.8659501723774" y="380.3253126016211" type="curve" smooth="yes"/>
      <point x="614.9324914200193" y="252.96199742799547"/>
      <point x="532.8126497996495" y="179.1888168179569"/>
    </contour>
    <contour>
      <point x="99.08349787368535" y="309.97943081993964" type="curve" smooth="yes"/>
      <point x="107.74571927808977" y="376.5900618301703"/>
      <point x="154.03333946696685" y="411.32085117392114"/>
      <point x="219.0" y="411.32085117392114" type="curve" smooth="yes"/>
      <point x="314.5486822401449" y="411.32085117392114"/>
      <point x="333.55118512678155" y="322.2253967444162"/>
      <point x="420.0" y="322.2253967444162" type="curve" smooth="yes"/>
      <point x="474.1577059566725" y="322.2253967444162"/>
      <point x="511.8439827115018" y="350.54174932222236"/>
      <point x="520.1053276879434" y="407.0110621830006" type="curve" smooth="yes"/>
      <point x="522.2766831708835" y="421.85307065108555"/>
      <point x="542.0660277949968" y="418.95793000716526"/>
      <point x="539.8946723120566" y="404.1159215390803" type="curve" smooth="yes"/>
      <point x="530.1545432966094" y="337.5385792000191"/>
      <point x="483.8519568790431" y="302.2253967444162"/>
      <point x="420.0" y="302.2253967444162" type="curve" smooth="yes"/>
      <point x="324.4513177598551" y="302.2253967444162"/>
      <point x="305.44881487321845" y="391.32085117392114"/>
      <point x="219.0" y="391.32085117392114" type="curve" smooth="yes"/>
      <point x="163.95190464031097" y="391.32085117392114"/>
      <point x="126.25624817427322" y="363.84137306137507"/>
      <point x="118.91650212631465" y="307.4002948570273" type="curve" smooth="yes"/>
      <point x="116.9821501541304" y="292.52554166755533"/>
      <point x="97.14914590150109" y="295.1046776304677"/>
    </contour>
    <contour>
      <point x="150.86450026180756" y="190.0712992920085" type="curve" smooth="yes"/>
      <point x="99.86450026180756" y="304.62259784422923" type="line"/>
      <point x="118.0453403373329" y="304.42584851137127" type="line"/>
      <point x="64.0453403373329" y="189.87454995915056" type="line" smooth="yes"/>
      <point x="57.64931884666459" y="176.3065394531512"/>
      <point x="39.55863817199878" y="184.8345681073756"/>
      <point x="45.95465966266709" y="198.40257861337494" type="curve" smooth="yes"/>
      <point x="99.9546596626671" y="312.95387716559566" type="line" smooth="yes"/>
      <point x="103.60323319714034" y="320.69367042924705"/>
      <point x="114.65527798533176" y="320.5740674609706"/>
      <point x="118.13549973819244" y="312.7571278327377" type="curve" smooth="yes"/>
      <point x="169.13549973819244" y="198.205829280517" type="line" smooth="yes"/>
      <point x="175.2363972295738" y="184.50257967322835"/>
      <point x="156.96539775318894" y="176.36804968471984"/>
    </contour>
    <contour>
      <point x="474.3387389260116" y="387.54061707222553" type="curve" smooth="yes"/>
      <point x="525.3387389260116" y="414.4106747573143" type="line" smooth="yes"/>
      <point x="528.1837134946076" y="415.9095890861532"/>
      <point x="531.5759316419641" y="415.94891741423817"/>
      <point x="534.4548927337063" y="414.51636462519673" type="curve" smooth="yes"/>
      <point x="588.4548927337063" y="387.64630694010793" type="line" smooth="yes"/>
      <point x="601.8842018799406" y="380.9639678395485"/>
      <point x="592.9744164125281" y="363.05822231123597"/>
      <point x="579.5451072662937" y="369.7405614117954" type="curve" smooth="yes"/>
      <point x="525.5451072662937" y="396.6106190968842" type="line"/>
      <point x="534.6612610739884" y="396.7163089647666" type="line"/>
      <point x="483.6612610739884" y="369.8462512796778" type="line" smooth="yes"/>
      <point x="470.3904867295776" y="362.85435966869517"/>
      <point x="461.06796458160085" y="380.5487254612429"/>
    </contour>
  </outline>
</glyph>
<glyph name="guillemetleft" format="2">
  <advance width="752"/>
  <unicode hex="00AB"/>
  <outline>
    <contour>
      <point x="262.1827991305474" y="280.51911697396804" type="curve"/>
      <point x="262.1827991305474" y="294.43420183180604" type="line"/>
      <point x="312.8719340087335" y="242.10396056473255"/>
      <point x="362.4768821010577" y="175.53633089779166"/>
      <point x="401.000624608479" y="95.96569006703606" type="curve" smooth="yes"/>
      <point x="405.4750237498003" y="86.72383598344251"/>
      <point x="394.78190629536755" y="77.54774275576146"/>
      <point x="386.3264620785882" y="83.37333952134897" type="curve" smooth="yes"/>
      <point x="269.9587562827086" y="163.54787714741897"/>
      <point x="148.62988458543512" y="221.87289308302718"/>
      <point x="1.4297097325274875" y="278.1357265048307" type="curve" smooth="yes"/>
      <point x="-7.143236577509188" y="281.4124770294659"/>
      <point x="-7.143236577509186" y="293.5408417763082"/>
      <point x="1.4297097325274928" y="296.8175923009434" type="curve" smooth="yes"/>
      <point x="148.62988458543512" y="353.0804257227468"/>
      <point x="269.9587562827086" y="411.40544165835513"/>
      <point x="386.3264620785882" y="491.57997928442506" type="curve" smooth="yes"/>
      <point x="394.781906295367" y="497.4055760500122"/>
      <point x="405.47502374979996" y="488.22948282233097"/>
      <point x="401.000624608479" y="478.987628738738" type="curve" smooth="yes"/>
      <point x="362.4768821010577" y="399.41698790798245"/>
      <point x="312.8719340087335" y="332.8493582410416"/>
    </contour>
    <contour>
      <point x="582.1827991305473" y="280.51911697396804" type="curve"/>
      <point x="582.1827991305473" y="294.43420183180604" type="line"/>
      <point x="632.8719340087332" y="242.10396056473255"/>
      <point x="682.4768821010576" y="175.53633089779166"/>
      <point x="721.000624608479" y="95.96569006703606" type="curve" smooth="yes"/>
      <point x="725.4750237498001" y="86.72383598344285"/>
      <point x="714.7819062953672" y="77.54774275576167"/>
      <point x="706.3264620785882" y="83.37333952134897" type="curve" smooth="yes"/>
      <point x="589.9587562827086" y="163.54787714741897"/>
      <point x="468.6298845854351" y="221.87289308302718"/>
      <point x="321.4297097325275" y="278.1357265048307" type="curve" smooth="yes"/>
      <point x="312.85676342249087" y="281.4124770294659"/>
      <point x="312.85676342249087" y="293.5408417763082"/>
      <point x="321.4297097325275" y="296.8175923009434" type="curve" smooth="yes"/>
      <point x="468.6298845854351" y="353.0804257227468"/>
      <point x="589.9587562827086" y="411.40544165835513"/>
      <point x="706.3264620785882" y="491.57997928442506" type="curve" smooth="yes"/>
      <point x="714.7819062953674" y="497.4055760500125"/>
      <point x="725.4750237498002" y="488.2294828223314"/>
      <point x="721.000624608479" y="478.987628738738" type="curve" smooth="yes"/>
      <point x="682.4768821010576" y="399.41698790798245"/>
      <point x="632.8719340087332" y="332.8493582410416"/>
    </contour>
    <contour>
      <point x="247.81720086945265" y="294.43420183180604" type="curve" smooth="yes"/>
      <point x="297.1273250166298" y="345.34078565361045"/>
      <point x="345.52368103966637" y="410.2969454167083"/>
      <point x="382.999375391521" y="487.7028468443834" type="curve"/>
      <point x="397.6735379214118" y="475.1104962986963" type="line"/>
      <point x="280.0074649455083" y="394.04141505663483"/>
      <point x="157.41284411733352" y="335.02630983259314"/>
      <point x="8.570290267472508" y="278.1357265048307" type="curve"/>
      <point x="8.570290267472512" y="296.8175923009434" type="line"/>
      <point x="157.41284411733352" y="239.9270089731809"/>
      <point x="280.0074649455083" y="180.91190374913924"/>
      <point x="397.6735379214118" y="99.84282250707774" type="curve"/>
      <point x="382.999375391521" y="87.25047196139064" type="line"/>
      <point x="345.52368103966637" y="164.65637338906583"/>
      <point x="297.1273250166298" y="229.61253315216362"/>
      <point x="247.81720086945265" y="280.51911697396804" type="curve" smooth="yes"/>
      <point x="244.06093304351575" y="284.39699735341037"/>
      <point x="244.06093304351575" y="290.5563214523637"/>
    </contour>
    <contour>
      <point x="567.8172008694527" y="294.43420183180604" type="curve" smooth="yes"/>
      <point x="617.1273250166296" y="345.34078565361045"/>
      <point x="665.5236810396665" y="410.2969454167083"/>
      <point x="702.999375391521" y="487.7028468443834" type="curve"/>
      <point x="717.6735379214118" y="475.1104962986963" type="line"/>
      <point x="600.0074649455082" y="394.04141505663483"/>
      <point x="477.41284411733346" y="335.02630983259314"/>
      <point x="328.5702902674725" y="278.1357265048307" type="curve"/>
      <point x="328.5702902674725" y="296.8175923009434" type="line"/>
      <point x="477.41284411733346" y="239.9270089731809"/>
      <point x="600.0074649455082" y="180.91190374913924"/>
      <point x="717.6735379214118" y="99.84282250707774" type="curve"/>
      <point x="702.999375391521" y="87.25047196139064" type="line"/>
      <point x="665.5236810396665" y="164.65637338906583"/>
      <point x="617.1273250166296" y="229.61253315216362"/>
      <point x="567.8172008694527" y="280.51911697396804" type="curve" smooth="yes"/>
      <point x="564.0609330435158" y="284.39699735341037"/>
      <point x="564.0609330435158" y="290.5563214523637"/>
    </contour>
    <contour>
      <point x="397.46585022409135" y="474.9712016483499" type="curve" smooth="yes"/>
      <point x="318.82549524366124" y="423.6415447730458"/>
      <point x="233.11611234945065" y="383.6813845606927"/>
      <point x="133.30335410505865" y="348.74870140944415" type="curve"/>
      <point x="135.96304396702055" y="366.21492163180676" type="line"/>
      <point x="235.77580221141255" y="292.0720839230343"/>
      <point x="321.45299917544384" y="205.8441573058294"/>
      <point x="400.09335415587395" y="97.48154834685411" type="curve" smooth="yes"/>
      <point x="408.9035551548351" y="85.34151711304321"/>
      <point x="392.7168468430872" y="73.5945824477617"/>
      <point x="383.90664584412605" y="85.7346136815726" type="curve" smooth="yes"/>
      <point x="306.5595596630913" y="192.31516073069767"/>
      <point x="222.20825772429276" y="277.23622121977013"/>
      <point x="124.03695603297945" y="350.1597534112767" type="curve" smooth="yes"/>
      <point x="117.59898905797981" y="354.9419991782266"/>
      <point x="119.12704254428685" y="364.97674762205475"/>
      <point x="126.69664589494135" y="367.6259736336393" type="curve" smooth="yes"/>
      <point x="224.86794758625467" y="401.9841763007915"/>
      <point x="309.1870635948739" y="441.2337516483439"/>
      <point x="386.53414977590865" y="491.7192739347715" type="curve" smooth="yes"/>
      <point x="399.0952039907248" y="499.91804927090845"/>
      <point x="410.02690443890754" y="483.1699769844869"/>
    </contour>
    <contour>
      <point x="0.07634036082669216" y="296.18054220067194" type="curve" smooth="yes"/>
      <point x="125.07634036082669" y="366.89122031932664" type="line" smooth="yes"/>
      <point x="128.13131790382272" y="368.61937658894675"/>
      <point x="131.86868209617728" y="368.61937658894675"/>
      <point x="134.9236596391733" y="366.89122031932664" type="curve" smooth="yes"/>
      <point x="259.9236596391733" y="296.18054220067194" type="line" smooth="yes"/>
      <point x="272.97948383585066" y="288.795052741912"/>
      <point x="263.13216455750404" y="271.3872871463422"/>
      <point x="250.0763403608267" y="278.77277660510214" type="curve" smooth="yes"/>
      <point x="125.07634036082669" y="349.48345472375684" type="line"/>
      <point x="134.9236596391733" y="349.48345472375684" type="line"/>
      <point x="9.923659639173309" y="278.77277660510214" type="line" smooth="yes"/>
      <point x="-3.132164557504037" y="271.3872871463422"/>
      <point x="-12.979483835850655" y="288.795052741912"/>
    </contour>
    <contour>
      <point x="717.4658502240914" y="474.9712016483499" type="curve" smooth="yes"/>
      <point x="638.8254952436612" y="423.6415447730458"/>
      <point x="553.1161123494506" y="383.6813845606927"/>
      <point x="453.30335410505865" y="348.74870140944415" type="curve"/>
      <point x="455.96304396702055" y="366.21492163180676" type="line"/>
      <point x="555.7758022114126" y="292.0720839230343"/>
      <point x="641.4529991754438" y="205.8441573058294"/>
      <point x="720.093354155874" y="97.48154834685411" type="curve" smooth="yes"/>
      <point x="728.9035551548351" y="85.34151711304321"/>
      <point x="712.7168468430872" y="73.5945824477617"/>
      <point x="703.906645844126" y="85.7346136815726" type="curve" smooth="yes"/>
      <point x="626.5595596630912" y="192.31516073069767"/>
      <point x="542.2082577242928" y="277.23622121977013"/>
      <point x="444.03695603297945" y="350.1597534112767" type="curve" smooth="yes"/>
      <point x="437.5989890579798" y="354.94199917822664"/>
      <point x="439.1270425442868" y="364.97674762205475"/>
      <point x="446.69664589494135" y="367.6259736336393" type="curve" smooth="yes"/>
      <point x="544.8679475862548" y="401.9841763007915"/>
      <point x="629.1870635948738" y="441.2337516483439"/>
      <point x="706.5341497759086" y="491.7192739347715" type="curve" smooth="yes"/>
      <point x="719.0952039907248" y="499.91804927090845"/>
      <point x="730.0269044389075" y="483.1699769844869"/>
    </contour>
    <contour>
      <point x="320.0763403608267" y="296.18054220067194" type="curve" smooth="yes"/>
      <point x="445.0763403608267" y="366.89122031932664" type="line" smooth="yes"/>
      <point x="448.1313179038227" y="368.61937658894675"/>
      <point x="451.8686820961773" y="368.61937658894675"/>
      <point x="454.9236596391733" y="366.89122031932664" type="curve" smooth="yes"/>
      <point x="579.9236596391733" y="296.18054220067194" type="line" smooth="yes"/>
      <point x="592.9794838358506" y="288.795052741912"/>
      <point x="583.1321645575041" y="271.3872871463422"/>
      <point x="570.0763403608267" y="278.77277660510214" type="curve" smooth="yes"/>
      <point x="445.0763403608267" y="349.48345472375684" type="line"/>
      <point x="454.9236596391733" y="349.48345472375684" type="line"/>
      <point x="329.9236596391733" y="278.77277660510214" type="line" smooth="yes"/>
      <point x="316.86783544249596" y="271.3872871463422"/>
      <point x="307.02051616414934" y="288.795052741912"/>
    </contour>
  </outline>
</glyph>
<glyph name="hyphensoft" format="2">
  <advance width="340"/>
  <unicode hex="00AD"/>
  <outline>
    <contour>
      <point x="36.55230105141266" y="223.15065385245074" type="line" smooth="yes"/>
      <point x="30.4849265296173" y="222.19725792614852"/>
      <point x="24.999999999999996" y="226.8876136314552"/>
      <point x="25.0" y="233.02943725152286" type="curve"/>
      <point x="25.0" y="321.4177848998413" type="line" smooth="yes"/>
      <point x="25.0" y="326.34132910573953"/>
      <point x="28.58383627200485" y="330.5322860141642"/>
      <point x="33.44769894858734" y="331.2965682989134" type="curve" smooth="yes"/>
      <point x="303.44769894858734" y="373.7229751701063" type="line" smooth="yes"/>
      <point x="309.51507347038284" y="374.6763710964085"/>
      <point x="315.0" y="369.986015391102"/>
      <point x="315.0" y="363.84419177103416" type="curve" smooth="yes"/>
      <point x="315.0" y="275.4558441227157" type="line" smooth="yes"/>
      <point x="315.0" y="270.5322999168175"/>
      <point x="311.4161637279951" y="266.3413430083928"/>
      <point x="306.55230105141266" y="265.57706072364357" type="curve" smooth="yes"/>
    </contour>
    <contour>
      <point x="33.44769894858734" y="242.90822065059498" type="line"/>
      <point x="303.44769894858734" y="285.3346275217878" type="line"/>
      <point x="295.0" y="275.4558441227157" type="line"/>
      <point x="295.0" y="363.84419177103416" type="line"/>
      <point x="306.55230105141266" y="353.96540837196204" type="line"/>
      <point x="36.55230105141266" y="311.5390015007692" type="line"/>
      <point x="45.0" y="321.4177848998413" type="line"/>
      <point x="45.0" y="233.02943725152286" type="line"/>
    </contour>
    <contour>
      <point x="244.57822491986067" y="300.229401413682" type="curve" smooth="yes"/>
      <point x="98.57822491986069" y="276.8948776345259" type="line" smooth="yes"/>
      <point x="83.76621243909887" y="274.5275402547349"/>
      <point x="80.60976259937749" y="294.276890229084"/>
      <point x="95.42177508013931" y="296.64422760887504" type="curve" smooth="yes"/>
      <point x="241.42177508013933" y="319.9787513880311" type="line" smooth="yes"/>
      <point x="256.23378756090113" y="322.34608876782215"/>
      <point x="259.3902374006225" y="302.59673879347304"/>
    </contour>
    <contour>
      <point x="28.450222593396425" y="240.5859189675032" type="curve" smooth="yes"/>
      <point x="90.45022259339643" y="294.3260343376808" type="line"/>
      <point x="92.12166052276909" y="278.04018815772656" type="line"/>
      <point x="30.12166052276909" y="312.6884204358674" type="line" smooth="yes"/>
      <point x="17.02761382680823" y="320.00592965171376"/>
      <point x="26.78429278127005" y="337.4646585796616"/>
      <point x="39.87833947723091" y="330.14714936381523" type="curve" smooth="yes"/>
      <point x="101.87833947723091" y="295.4989170856744" type="line" smooth="yes"/>
      <point x="107.92979555067409" y="292.11710651061594"/>
      <point x="108.78815614113229" y="283.75357215646625"/>
      <point x="103.54977740660357" y="279.21307090572014" type="curve" smooth="yes"/>
      <point x="41.549777406603575" y="225.47295553554252" type="line" smooth="yes"/>
      <point x="30.215054832633044" y="215.64828942563716"/>
      <point x="17.115500019425895" y="230.76125285759784"/>
    </contour>
    <contour>
      <point x="311.5497774066036" y="356.2877100550538" type="curve" smooth="yes"/>
      <point x="249.54977740660357" y="302.54759468487623" type="line"/>
      <point x="247.87833947723092" y="318.8334408648305" type="line"/>
      <point x="309.8783394772309" y="284.1852085866896" type="line" smooth="yes"/>
      <point x="322.97238617319175" y="276.86769937084324"/>
      <point x="313.21570721872996" y="259.4089704428954"/>
      <point x="300.1216605227691" y="266.72647965874177" type="curve" smooth="yes"/>
      <point x="238.12166052276908" y="301.37471193688265" type="line" smooth="yes"/>
      <point x="232.07020444932593" y="304.7565225119411"/>
      <point x="231.21184385886775" y="313.12005686609086"/>
      <point x="236.45022259339643" y="317.6605581168369" type="curve" smooth="yes"/>
      <point x="298.4502225933964" y="371.4006734870145" type="line" smooth="yes"/>
      <point x="309.7849451673669" y="381.22533959691987"/>
      <point x="322.8844999805741" y="366.1123761649592"/>
    </contour>
  </outline>
</glyph>
<glyph name="degree" format="2">
  <advance width="532"/>
  <unicode hex="00B0"/>
  <outline>
    <contour>
      <point x="265.0" y="318.4888527117068" type="curve" smooth="yes"/>
      <point x="199.1712719093679" y="318.4888527117068"/>
      <point x="159.0" y="353.87288389097233"/>
      <point x="159.0" y="406.270598642227" type="curve" smooth="yes"/>
      <point x="159.0" y="458.66831339348175"/>
      <point x="199.36431803280084" y="494.05234457274724"/>
      <point x="265.0" y="494.05234457274724" type="curve" smooth="yes"/>
      <point x="330.9415716324138" y="494.05234457274724"/>
      <point x="374.0" y="458.6945122508574"/>
      <point x="374.0" y="406.270598642227" type="curve" smooth="yes"/>
      <point x="374.0" y="353.8466850335967"/>
      <point x="330.9415716324138" y="318.4888527117068"/>
    </contour>
    <contour>
      <point x="265.0" y="257.1715728752538" type="curve" smooth="yes"/>
      <point x="385.05124118693675" y="257.1715728752538"/>
      <point x="473.0" y="318.4836966760327"/>
      <point x="473.0" y="406.270598642227" type="curve" smooth="yes"/>
      <point x="473.0" y="493.3438131993068"/>
      <point x="384.99121556634327" y="553.9554108468271"/>
      <point x="265.0" y="553.9554108468271" type="curve" smooth="yes"/>
      <point x="145.79706820527377" y="553.9554108468271"/>
      <point x="59.000000000000014" y="493.3438131993068"/>
      <point x="59.0" y="406.270598642227" type="curve" smooth="yes"/>
      <point x="58.999999999999986" y="318.4836966760327"/>
      <point x="145.8992585832692" y="257.1715728752538"/>
    </contour>
    <contour>
      <point x="265.0" y="368.8944443027283" type="curve" smooth="yes"/>
      <point x="351.30932566658265" y="368.8944443027283"/>
      <point x="414.0" y="412.01395378895285"/>
      <point x="414.0" y="476.98127676088177" type="curve" smooth="yes"/>
      <point x="414.0" y="541.9485997328106"/>
      <point x="351.30932566658265" y="585.0681092190353"/>
      <point x="265.0" y="585.0681092190353" type="curve" smooth="yes"/>
      <point x="178.60430023257487" y="585.0681092190353"/>
      <point x="119.00000000000001" y="542.0136158137789"/>
      <point x="119.0" y="476.98127676088177" type="curve" smooth="yes"/>
      <point x="118.99999999999999" y="411.9489377079847"/>
      <point x="178.60430023257487" y="368.8944443027283"/>
    </contour>
    <contour>
      <point x="265.0" y="338.4888527117068" type="curve" smooth="yes"/>
      <point x="318.17200239085616" y="338.4888527117068"/>
      <point x="354.0" y="363.99856310029674"/>
      <point x="354.0" y="406.270598642227" type="curve" smooth="yes"/>
      <point x="354.0" y="448.54263418415735"/>
      <point x="318.17200239085616" y="474.05234457274724"/>
      <point x="265.0" y="474.05234457274724" type="curve" smooth="yes"/>
      <point x="211.99519759009607" y="474.05234457274724"/>
      <point x="179.0" y="448.58493794487515"/>
      <point x="179.0" y="406.270598642227" type="curve" smooth="yes"/>
      <point x="179.0" y="363.95625933957893"/>
      <point x="211.8393011124198" y="338.4888527117068"/>
    </contour>
    <contour>
      <point x="265.0" y="237.17157287525382" type="curve" smooth="yes"/>
      <point x="132.82387869084724" y="237.17157287525382"/>
      <point x="38.999999999999986" y="308.84608166933435"/>
      <point x="39.0" y="406.270598642227" type="curve" smooth="yes"/>
      <point x="39.000000000000014" y="502.951417012273"/>
      <point x="132.64429156950322" y="573.9554108468271"/>
      <point x="265.0" y="573.9554108468271" type="curve" smooth="yes"/>
      <point x="398.23097093843813" y="573.9554108468271"/>
      <point x="493.0" y="502.951417012273"/>
      <point x="493.0" y="406.270598642227" type="curve" smooth="yes"/>
      <point x="493.0" y="308.84608166933435"/>
      <point x="398.23097093843813" y="237.17157287525382"/>
    </contour>
    <contour>
      <point x="265.0" y="348.8944443027283" type="curve" smooth="yes"/>
      <point x="165.50665284713847" y="348.8944443027283"/>
      <point x="98.99999999999999" y="402.08999047035684"/>
      <point x="99.0" y="476.98127676088177" type="curve" smooth="yes"/>
      <point x="99.00000000000001" y="551.8725630514069"/>
      <point x="165.50665284713847" y="605.0681092190353"/>
      <point x="265.0" y="605.0681092190353" type="curve" smooth="yes"/>
      <point x="364.5942389085667" y="605.0681092190353"/>
      <point x="434.0" y="551.9485069569754"/>
      <point x="434.0" y="476.98127676088177" type="curve" smooth="yes"/>
      <point x="434.0" y="402.0140465647883"/>
      <point x="364.5942389085667" y="348.8944443027283"/>
    </contour>
  </outline>
</glyph>
<glyph name="onesuperior" format="2">
  <advance width="344"/>
  <unicode hex="00B9"/>
  <outline>
    <contour>
      <point x="264.0" y="415.4629867976521" type="curve" smooth="yes"/>
      <point x="264.0" y="314.45479251255307"/>
      <point x="266.93701659719716" y="287.3493276266686"/>
      <point x="279.8393405698633" y="271.0576833871364" type="curve" smooth="yes"/>
      <point x="285.0309535710096" y="264.50228203283854"/>
      <point x="280.3621846708622" y="254.8492424049175"/>
      <point x="272.0" y="254.8492424049175" type="curve" smooth="yes"/>
      <point x="108.0" y="254.8492424049175" type="line" smooth="yes"/>
      <point x="98.97852822714886" y="254.8492424049175"/>
      <point x="94.56948531961231" y="265.85334816042376"/>
      <point x="101.09505821461788" y="272.08262190142426" type="curve" smooth="yes"/>
      <point x="119.51773365844618" y="289.66880019222964"/>
      <point x="123.0" y="314.5052966096956"/>
      <point x="123.0" y="415.4629867976521" type="curve" smooth="yes"/>
      <point x="123.0" y="444.86872204980233"/>
      <point x="123.0127415085891" y="458.77806886937697"/>
      <point x="122.02259889894282" y="473.48093649545217" type="curve"/>
      <point x="133.74077655955696" y="464.30553035778894" type="line"/>
      <point x="94.85908961608186" y="457.432154232363"/>
      <point x="65.72773989917214" y="448.58508264982987"/>
      <point x="44.34281208026081" y="438.275018461691" type="curve" smooth="yes"/>
      <point x="37.70318865377328" y="435.0739347689221"/>
      <point x="29.999999999999996" y="439.9117990699165"/>
      <point x="30.0" y="447.28279195104676" type="curve"/>
      <point x="30.0" y="534.9640328181787" type="line" smooth="yes"/>
      <point x="30.0" y="539.9928317732997"/>
      <point x="33.73449269462484" y="544.2393892607806"/>
      <point x="38.722059126789745" y="544.8820400335712" type="curve" smooth="yes"/>
      <point x="263.72205912678976" y="573.8734180622197" type="line" smooth="yes"/>
      <point x="270.9961910687782" y="574.810694102044"/>
      <point x="276.7710904589257" y="567.8583470866438"/>
      <point x="274.51522683697317" y="560.879625054392" type="curve" smooth="yes"/>
      <point x="266.70391537087255" y="536.7146130834669"/>
      <point x="264.0" y="515.5751792486274"/>
    </contour>
    <contour>
      <point x="244.0" y="415.4629867976521" type="curve" smooth="yes"/>
      <point x="244.00000000000003" y="520.2965720654906"/>
      <point x="247.3050723035524" y="541.7265381263355"/>
      <point x="255.48477316302686" y="567.0311966392622" type="curve"/>
      <point x="266.27794087321024" y="554.0374036314346" type="line"/>
      <point x="41.277940873210255" y="525.0460256027861" type="line"/>
      <point x="50.0" y="534.9640328181787" type="line"/>
      <point x="50.0" y="447.28279195104676" type="line"/>
      <point x="35.65718791973919" y="456.29056544040253" type="line"/>
      <point x="58.27570495716267" y="467.1953655160017"/>
      <point x="89.13464700876399" y="476.7303021974161"/>
      <point x="130.25922344044304" y="484.0001689144822" type="curve" smooth="yes"/>
      <point x="136.11680087095763" y="485.0356520950927"/>
      <point x="141.5777204228052" y="480.75971805274423"/>
      <point x="141.97740110105718" y="474.82476277681894" type="curve" smooth="yes"/>
      <point x="142.98764264502694" y="459.8234412028946"/>
      <point x="143.0" y="445.46562994550055"/>
      <point x="143.0" y="415.4629867976521" type="curve" smooth="yes"/>
      <point x="143.0" y="298.14870777156415"/>
      <point x="136.31235397360342" y="278.05125344843896"/>
      <point x="114.90494178538212" y="257.61586290841075" type="curve"/>
      <point x="108.0" y="274.8492424049175" type="line"/>
      <point x="272.0" y="274.8492424049175" type="line"/>
      <point x="264.1606594301367" y="258.6408014226986" type="line"/>
      <point x="249.1831663103511" y="277.5527424051544"/>
      <point x="243.99999999999997" y="298.208952706426"/>
    </contour>
    <contour>
      <point x="88.14703578155166" y="583.6817325146451" type="curve" smooth="yes"/>
      <point x="118.33290911806232" y="589.3736353765877"/>
      <point x="154.5474202805812" y="595.0658604811888"/>
      <point x="195.80144717381245" y="600.0462754853887" type="curve" smooth="yes"/>
      <point x="202.16156039902478" y="600.814103639892"/>
      <point x="207.59322351620207" y="595.4871806011053"/>
      <point x="206.94936676326182" y="589.1133239354701" type="curve" smooth="yes"/>
      <point x="204.96511601786256" y="569.4702437284225"/>
      <point x="204.0" y="550.0136755892119"/>
      <point x="204.0" y="486.17366491630685" type="curve" smooth="yes"/>
      <point x="204.0" y="372.3294731452727" type="line" smooth="yes"/>
      <point x="204.0" y="357.3294731452727"/>
      <point x="184.0" y="357.3294731452727"/>
      <point x="184.0" y="372.3294731452727" type="curve" smooth="yes"/>
      <point x="184.0" y="486.17366491630685" type="line" smooth="yes"/>
      <point x="184.0" y="551.0162266306256"/>
      <point x="185.03522158409191" y="571.1718421154292"/>
      <point x="187.05063323673818" y="591.1233995659886" type="curve"/>
      <point x="198.19855282618755" y="580.19044801607" type="line"/>
      <point x="157.4608942410386" y="575.2723718588373"/>
      <point x="121.66100708563044" y="569.6487375176413"/>
      <point x="91.85296421844834" y="564.0280790522324" type="curve" smooth="yes"/>
      <point x="77.11272412163892" y="561.2486327245599"/>
      <point x="73.40679568474225" y="580.9022861869726"/>
    </contour>
    <contour>
      <point x="263.90664584412605" y="258.97577507227675" type="curve" smooth="yes"/>
      <point x="185.90664584412607" y="366.45600581263193" type="line"/>
      <point x="201.80812760271843" y="366.0818221195138" type="line"/>
      <point x="115.80812760271843" y="258.6015913791586" type="line" smooth="yes"/>
      <point x="106.43665106408005" y="246.88939997508095"/>
      <point x="90.8203958586432" y="259.38470202659875"/>
      <point x="100.19187239728157" y="271.0968934306764" type="curve" smooth="yes"/>
      <point x="186.19187239728157" y="378.5771241710316" type="line" smooth="yes"/>
      <point x="190.31642910969546" y="383.7318719286121"/>
      <point x="198.21582498337276" y="383.5459883005145"/>
      <point x="202.09335415587393" y="378.20294047791344" type="curve" smooth="yes"/>
      <point x="280.09335415587395" y="270.72270973755826" type="line" smooth="yes"/>
      <point x="288.9035551548351" y="258.58267850374733"/>
      <point x="272.7168468430872" y="246.83574383846585"/>
    </contour>
    <contour>
      <point x="30.699384732962283" y="450.95683000944314" type="curve" smooth="yes"/>
      <point x="80.69938473296229" y="577.5289438418351" type="line"/>
      <point x="96.13960129404542" y="565.9615354038002" type="line"/>
      <point x="46.13960129404542" y="527.0706624385401" type="line" smooth="yes"/>
      <point x="34.299545724587546" y="517.861260497472"/>
      <point x="22.020343136496702" y="533.6480012567491"/>
      <point x="33.86039870595458" y="542.8574031978172" type="curve" smooth="yes"/>
      <point x="83.86039870595458" y="581.7482761630773" type="line" smooth="yes"/>
      <point x="91.89476355891024" y="587.9975454201343"/>
      <point x="103.04028043224346" y="579.6476142247515"/>
      <point x="99.30061526703771" y="570.1808677250424" type="curve" smooth="yes"/>
      <point x="49.30061526703771" y="443.6087538926504" type="line" smooth="yes"/>
      <point x="43.789558179443155" y="429.6578309920938"/>
      <point x="25.18832764536773" y="437.00590710888656"/>
    </contour>
    <contour>
      <point x="123.27684254849625" y="479.0422794675448" type="curve" smooth="yes"/>
      <point x="188.27684254849623" y="595.0077915821386" type="line" smooth="yes"/>
      <point x="190.70693140623789" y="599.343276180169"/>
      <point x="195.9522792114186" y="601.2360971183955"/>
      <point x="200.59087936556847" y="599.4513990581623" type="curve" smooth="yes"/>
      <point x="268.59087936556847" y="573.2884481542601" type="line" smooth="yes"/>
      <point x="282.59043532671785" y="567.9021291059074"/>
      <point x="275.4086765955809" y="549.2360544910415"/>
      <point x="261.40912063443153" y="554.6223735393942" type="curve" smooth="yes"/>
      <point x="193.40912063443153" y="580.7853244432964" type="line"/>
      <point x="205.72315745150377" y="585.2289319193202" type="line"/>
      <point x="140.72315745150377" y="469.2634198047263" type="line" smooth="yes"/>
      <point x="133.3890127043899" y="456.17868362747066"/>
      <point x="115.9426978013824" y="465.95754329028915"/>
    </contour>
  </outline>
</glyph>
<glyph name="onehalf" format="2">
  <advance width="940"/>
  <unicode hex="00BD"/>
  <outline>
    <contour>
      <point x="264.0" y="415.4629867976521" type="curve" smooth="yes"/>
      <point x="264.0" y="314.45479251255307"/>
      <point x="266.93701659719716" y="287.3493276266686"/>
      <point x="279.8393405698633" y="271.0576833871364" type="curve" smooth="yes"/>
      <point x="285.0309535710096" y="264.50228203283854"/>
      <point x="280.3621846708622" y="254.8492424049175"/>
      <point x="272.0" y="254.8492424049175" type="curve" smooth="yes"/>
      <point x="108.0" y="254.8492424049175" type="line" smooth="yes"/>
      <point x="98.97852822714886" y="254.8492424049175"/>
      <point x="94.56948531961231" y="265.85334816042376"/>
      <point x="101.09505821461788" y="272.08262190142426" type="curve" smooth="yes"/>
      <point x="119.51773365844618" y="289.66880019222964"/>
      <point x="123.0" y="314.5052966096956"/>
      <point x="123.0" y="415.4629867976521" type="curve" smooth="yes"/>
      <point x="123.0" y="444.86872204980233"/>
      <point x="123.0127415085891" y="458.77806886937697"/>
      <point x="122.02259889894282" y="473.48093649545217" type="curve"/>
      <point x="133.74077655955696" y="464.30553035778894" type="line"/>
      <point x="94.85908961608186" y="457.432154232363"/>
      <point x="65.72773989917214" y="448.58508264982987"/>
      <point x="44.34281208026081" y="438.275018461691" type="curve" smooth="yes"/>
      <point x="37.70318865377328" y="435.0739347689221"/>
      <point x="29.999999999999996" y="439.9117990699165"/>
      <point x="30.0" y="447.28279195104676" type="curve"/>
      <point x="30.0" y="534.9640328181787" type="line" smooth="yes"/>
      <point x="30.0" y="539.9928317732997"/>
      <point x="33.73449269462484" y="544.2393892607806"/>
      <point x="38.722059126789745" y="544.8820400335712" type="curve" smooth="yes"/>
      <point x="263.72205912678976" y="573.8734180622197" type="line" smooth="yes"/>
      <point x="270.9961910687782" y="574.810694102044"/>
      <point x="276.7710904589257" y="567.8583470866438"/>
      <point x="274.51522683697317" y="560.879625054392" type="curve" smooth="yes"/>
      <point x="266.70391537087255" y="536.7146130834669"/>
      <point x="264.0" y="515.5751792486274"/>
    </contour>
    <contour>
      <point x="155.0" y="63.22330470336311" type="line" smooth="yes"/>
      <point x="146.45726970902854" y="63.22330470336311"/>
      <point x="141.84789527224046" y="73.2428509133942"/>
      <point x="147.40632413353515" y="79.72992339782103" type="curve" smooth="yes"/>
      <point x="559.4063241335351" y="560.5625346046733" type="line" smooth="yes"/>
      <point x="561.3061557088727" y="562.779769986282"/>
      <point x="564.0801553547993" y="564.0559159102154"/>
      <point x="567.0" y="564.0559159102154" type="curve" smooth="yes"/>
      <point x="693.0" y="564.0559159102154" type="line" smooth="yes"/>
      <point x="701.5427302909715" y="564.0559159102154"/>
      <point x="706.1521047277596" y="554.0363697001844"/>
      <point x="700.5936758664649" y="547.5492972157575" type="curve" smooth="yes"/>
      <point x="288.5936758664649" y="66.7166860089052" type="line" smooth="yes"/>
      <point x="286.6938442911274" y="64.49945062729658"/>
      <point x="283.91984464520056" y="63.22330470336311"/>
      <point x="281.0" y="63.22330470336311" type="curve" smooth="yes"/>
    </contour>
    <contour>
      <point x="873.0" y="285.3553390593274" type="curve" smooth="yes"/>
      <point x="873.0" y="207.70902092444442"/>
      <point x="789.2141604789634" y="187.7969327515622"/>
      <point x="724.4271595358978" y="133.44451005714407" type="curve"/>
      <point x="718.0" y="151.10555569727165" type="line"/>
      <point x="807.368471125968" y="151.10555569727165"/>
      <point x="842.4842219715695" y="156.88445692789534"/>
      <point x="864.586101927454" y="167.7563798453054" type="curve" smooth="yes"/>
      <point x="871.880877817728" y="171.34468280130463"/>
      <point x="880.1815240135841" y="165.19128219664145"/>
      <point x="878.8687589584117" y="157.16841978330828" type="curve" smooth="yes"/>
      <point x="864.8687589584117" y="71.60849925973604" type="line" smooth="yes"/>
      <point x="864.0775721418465" y="66.77322203512084"/>
      <point x="859.8995798205141" y="63.22330470336311"/>
      <point x="855.0" y="63.22330470336311" type="curve" smooth="yes"/>
      <point x="552.0" y="63.22330470336311" type="line" smooth="yes"/>
      <point x="545.3811424819095" y="63.22330470336311"/>
      <point x="540.5883140421556" y="69.53783343847425"/>
      <point x="542.3684606631069" y="75.9128120935522" type="curve" smooth="yes"/>
      <point x="575.8670582247379" y="195.87643863815723"/>
      <point x="729.0" y="219.83916887853127"/>
      <point x="729.0" y="271.920310216783" type="curve" smooth="yes"/>
      <point x="729.0" y="284.49516244642047"/>
      <point x="706.4536425087854" y="290.91168824543144"/>
      <point x="678.0" y="290.91168824543144" type="curve" smooth="yes"/>
      <point x="643.4576185414988" y="290.91168824543144"/>
      <point x="605.9457861426354" y="282.0341184271963"/>
      <point x="572.3629152802037" y="265.7506836487706" type="curve" smooth="yes"/>
      <point x="565.7217093226336" y="262.53054072224194"/>
      <point x="558.0" y="267.36802348458167"/>
      <point x="558.0" y="274.74873734152914" type="curve" smooth="yes"/>
      <point x="558.0" y="359.60155108391484" type="line" smooth="yes"/>
      <point x="558.0" y="364.437809876043"/>
      <point x="561.4609819312975" y="368.58100773794575"/>
      <point x="566.2200087969595" y="369.44185754850724" type="curve" smooth="yes"/>
      <point x="609.8350626290095" y="377.33128786457814"/>
      <point x="650.4135533229291" y="380.91525958289964"/>
      <point x="692.0" y="380.91525958289964" type="curve" smooth="yes"/>
      <point x="802.9983144785491" y="380.91525958289964"/>
      <point x="873.0" y="349.2227493735323"/>
    </contour>
    <contour>
      <point x="244.0" y="415.4629867976521" type="curve" smooth="yes"/>
      <point x="244.00000000000003" y="520.2965720654906"/>
      <point x="247.3050723035524" y="541.7265381263355"/>
      <point x="255.48477316302686" y="567.0311966392622" type="curve"/>
      <point x="266.27794087321024" y="554.0374036314346" type="line"/>
      <point x="41.277940873210255" y="525.0460256027861" type="line"/>
      <point x="50.0" y="534.9640328181787" type="line"/>
      <point x="50.0" y="447.28279195104676" type="line"/>
      <point x="35.65718791973919" y="456.29056544040253" type="line"/>
      <point x="58.27570495716267" y="467.1953655160017"/>
      <point x="89.13464700876399" y="476.7303021974161"/>
      <point x="130.25922344044304" y="484.0001689144822" type="curve" smooth="yes"/>
      <point x="136.11680087095763" y="485.0356520950927"/>
      <point x="141.5777204228052" y="480.75971805274423"/>
      <point x="141.97740110105718" y="474.82476277681894" type="curve" smooth="yes"/>
      <point x="142.98764264502694" y="459.8234412028946"/>
      <point x="143.0" y="445.46562994550055"/>
      <point x="143.0" y="415.4629867976521" type="curve" smooth="yes"/>
      <point x="143.0" y="298.14870777156415"/>
      <point x="136.31235397360342" y="278.05125344843896"/>
      <point x="114.90494178538212" y="257.61586290841075" type="curve"/>
      <point x="108.0" y="274.8492424049175" type="line"/>
      <point x="272.0" y="274.8492424049175" type="line"/>
      <point x="264.1606594301367" y="258.6408014226986" type="line"/>
      <point x="249.1831663103511" y="277.5527424051544"/>
      <point x="243.99999999999997" y="298.208952706426"/>
    </contour>
    <contour>
      <point x="88.14703578155166" y="583.6817325146451" type="curve" smooth="yes"/>
      <point x="118.33290911806232" y="589.3736353765877"/>
      <point x="154.5474202805812" y="595.0658604811888"/>
      <point x="195.80144717381245" y="600.0462754853887" type="curve" smooth="yes"/>
      <point x="202.16156039902478" y="600.814103639892"/>
      <point x="207.59322351620207" y="595.4871806011053"/>
      <point x="206.94936676326182" y="589.1133239354701" type="curve" smooth="yes"/>
      <point x="204.96511601786256" y="569.4702437284225"/>
      <point x="204.0" y="550.0136755892119"/>
      <point x="204.0" y="486.17366491630685" type="curve" smooth="yes"/>
      <point x="204.0" y="372.3294731452727" type="line" smooth="yes"/>
      <point x="204.0" y="357.3294731452727"/>
      <point x="184.0" y="357.3294731452727"/>
      <point x="184.0" y="372.3294731452727" type="curve" smooth="yes"/>
      <point x="184.0" y="486.17366491630685" type="line" smooth="yes"/>
      <point x="184.0" y="551.0162266306256"/>
      <point x="185.03522158409191" y="571.1718421154292"/>
      <point x="187.05063323673818" y="591.1233995659886" type="curve"/>
      <point x="198.19855282618755" y="580.19044801607" type="line"/>
      <point x="157.4608942410386" y="575.2723718588373"/>
      <point x="121.66100708563044" y="569.6487375176413"/>
      <point x="91.85296421844834" y="564.0280790522324" type="curve" smooth="yes"/>
      <point x="77.11272412163892" y="561.2486327245599"/>
      <point x="73.40679568474225" y="580.9022861869726"/>
    </contour>
    <contour>
      <point x="263.90664584412605" y="258.97577507227675" type="curve" smooth="yes"/>
      <point x="185.90664584412607" y="366.45600581263193" type="line"/>
      <point x="201.80812760271843" y="366.0818221195138" type="line"/>
      <point x="115.80812760271843" y="258.6015913791586" type="line" smooth="yes"/>
      <point x="106.43665106408005" y="246.88939997508095"/>
      <point x="90.8203958586432" y="259.38470202659875"/>
      <point x="100.19187239728157" y="271.0968934306764" type="curve" smooth="yes"/>
      <point x="186.19187239728157" y="378.5771241710316" type="line" smooth="yes"/>
      <point x="190.31642910969546" y="383.7318719286121"/>
      <point x="198.21582498337276" y="383.5459883005145"/>
      <point x="202.09335415587393" y="378.20294047791344" type="curve" smooth="yes"/>
      <point x="280.09335415587395" y="270.72270973755826" type="line" smooth="yes"/>
      <point x="288.9035551548351" y="258.58267850374733"/>
      <point x="272.7168468430872" y="246.83574383846585"/>
    </contour>
    <contour>
      <point x="30.699384732962283" y="450.95683000944314" type="curve" smooth="yes"/>
      <point x="80.69938473296229" y="577.5289438418351" type="line"/>
      <point x="96.13960129404542" y="565.9615354038002" type="line"/>
      <point x="46.13960129404542" y="527.0706624385401" type="line" smooth="yes"/>
      <point x="34.299545724587546" y="517.861260497472"/>
      <point x="22.020343136496702" y="533.6480012567491"/>
      <point x="33.86039870595458" y="542.8574031978172" type="curve" smooth="yes"/>
      <point x="83.86039870595458" y="581.7482761630773" type="line" smooth="yes"/>
      <point x="91.89476355891024" y="587.9975454201343"/>
      <point x="103.04028043224346" y="579.6476142247515"/>
      <point x="99.30061526703771" y="570.1808677250424" type="curve" smooth="yes"/>
      <point x="49.30061526703771" y="443.6087538926504" type="line" smooth="yes"/>
      <point x="43.789558179443155" y="429.6578309920938"/>
      <point x="25.18832764536773" y="437.00590710888656"/>
    </contour>
    <contour>
      <point x="123.27684254849625" y="479.0422794675448" type="curve" smooth="yes"/>
      <point x="188.27684254849623" y="595.0077915821386" type="line" smooth="yes"/>
      <point x="190.70693140623789" y="599.343276180169"/>
      <point x="195.9522792114186" y="601.2360971183955"/>
      <point x="200.59087936556847" y="599.4513990581623" type="curve" smooth="yes"/>
      <point x="268.59087936556847" y="573.2884481542601" type="line" smooth="yes"/>
      <point x="282.59043532671785" y="567.9021291059074"/>
      <point x="275.4086765955809" y="549.2360544910415"/>
      <point x="261.40912063443153" y="554.6223735393942" type="curve" smooth="yes"/>
      <point x="193.40912063443153" y="580.7853244432964" type="line"/>
      <point x="205.72315745150377" y="585.2289319193202" type="line"/>
      <point x="140.72315745150377" y="469.2634198047263" type="line" smooth="yes"/>
      <point x="133.3890127043899" y="456.17868362747066"/>
      <point x="115.9426978013824" y="465.95754329028915"/>
    </contour>
    <contour>
      <point x="155.0" y="83.22330470336311" type="line"/>
      <point x="281.0" y="83.22330470336311" type="line"/>
      <point x="273.4063241335351" y="79.72992339782103" type="line"/>
      <point x="685.4063241335351" y="560.5625346046733" type="line"/>
      <point x="693.0" y="544.0559159102154" type="line"/>
      <point x="567.0" y="544.0559159102154" type="line"/>
      <point x="574.5936758664649" y="547.5492972157575" type="line"/>
      <point x="162.59367586646485" y="66.7166860089052" type="line"/>
    </contour>
    <contour>
      <point x="606.5843591953302" y="581.4795652394948" type="curve" smooth="yes"/>
      <point x="256.5843591953302" y="174.18605927604335" type="line" smooth="yes"/>
      <point x="246.8081449438178" y="162.8095204830481"/>
      <point x="231.63942655315745" y="175.84447281839797"/>
      <point x="241.41564080466983" y="187.22101161139324" type="curve" smooth="yes"/>
      <point x="591.4156408046698" y="594.5145175748446" type="line" smooth="yes"/>
      <point x="601.1918550561822" y="605.8910563678398"/>
      <point x="616.3605734468426" y="592.8561040324901"/>
    </contour>
    <contour>
      <point x="271.41576782619893" y="70.36979920333742" type="curve" smooth="yes"/>
      <point x="239.41576782619896" y="177.85002994369262" type="line"/>
      <point x="256.52733557452314" y="174.12028251309815" type="line"/>
      <point x="162.5273355745231" y="66.64005177274296" type="line" smooth="yes"/>
      <point x="152.6524561785929" y="55.34904841095829"/>
      <point x="137.59778502954669" y="68.51555427219859"/>
      <point x="147.4726644254769" y="79.80655763398326" type="curve" smooth="yes"/>
      <point x="241.4726644254769" y="187.28678837433844" type="line" smooth="yes"/>
      <point x="246.65590567243976" y="193.21334119568414"/>
      <point x="256.3375605720804" y="191.10306538595455"/>
      <point x="258.58423217380107" y="183.55704094374397" type="curve" smooth="yes"/>
      <point x="290.58423217380107" y="76.0768102033888" type="line" smooth="yes"/>
      <point x="294.8644904238396" y="61.700461942687234"/>
      <point x="275.69602607623744" y="55.99345094263585"/>
    </contour>
    <contour>
      <point x="559.72393124891" y="560.9158593159158" type="curve" smooth="yes"/>
      <point x="591.72393124891" y="594.8569848128701" type="line" smooth="yes"/>
      <point x="594.45671473425" y="597.7555394138678"/>
      <point x="598.6492407060639" y="598.7556050785169"/>
      <point x="602.3961508518807" y="597.4026864882511" type="curve" smooth="yes"/>
      <point x="696.3961508518807" y="563.4615609912968" type="line" smooth="yes"/>
      <point x="710.5046184735028" y="558.3673347134757"/>
      <point x="703.7123167697413" y="539.5560445513129"/>
      <point x="689.6038491481193" y="544.650270829134" type="curve" smooth="yes"/>
      <point x="595.6038491481193" y="578.5913963260883" type="line"/>
      <point x="606.27606875109" y="581.1370980014693" type="line"/>
      <point x="574.27606875109" y="547.195972504515" type="line" smooth="yes"/>
      <point x="563.9861536425394" y="536.2818693778801"/>
      <point x="549.4340161403595" y="550.0017561892809"/>
    </contour>
    <contour>
      <point x="853.0" y="285.3553390593274" type="curve" smooth="yes"/>
      <point x="853.0" y="338.61367769294225"/>
      <point x="784.5602868689393" y="360.91525958289964"/>
      <point x="692.0" y="360.91525958289964" type="curve" smooth="yes"/>
      <point x="651.5859153502151" y="360.91525958289964"/>
      <point x="612.1654946162296" y="357.4282642882105"/>
      <point x="569.7799912030405" y="349.76124461932244" type="curve"/>
      <point x="578.0" y="359.60155108391484" type="line"/>
      <point x="578.0" y="274.74873734152914" type="line"/>
      <point x="563.6370847197963" y="283.7467910342877" type="line"/>
      <point x="600.0568959844009" y="301.4057822443925"/>
      <point x="640.5396226992638" y="310.91168824543144"/>
      <point x="678.0" y="310.91168824543144" type="curve" smooth="yes"/>
      <point x="727.7621124047936" y="310.91168824543144"/>
      <point x="749.0" y="293.9122646715309"/>
      <point x="749.0" y="271.920310216783" type="curve" smooth="yes"/>
      <point x="749.0" y="210.85342979342707"/>
      <point x="590.2009709906538" y="172.8453231374358"/>
      <point x="561.6315393368931" y="70.53379731317402" type="curve"/>
      <point x="552.0" y="83.22330470336311" type="line"/>
      <point x="855.0" y="83.22330470336311" type="line"/>
      <point x="845.1312410415883" y="74.83811014699019" type="line"/>
      <point x="859.1312410415883" y="160.39803067056246" type="line"/>
      <point x="873.413898072546" y="149.81007060856535" type="line"/>
      <point x="849.5409513881746" y="138.06695931296605"/>
      <point x="814.529740941154" y="131.10555569727165"/>
      <point x="718.0" y="131.10555569727165" type="curve" smooth="yes"/>
      <point x="708.6634348266119" y="131.10555569727165"/>
      <point x="704.4200552725671" y="142.765841948732"/>
      <point x="711.5728404641022" y="148.76660133739924" type="curve" smooth="yes"/>
      <point x="764.453904090285" y="193.13065401621608"/>
      <point x="853.0" y="221.97812094673196"/>
    </contour>
    <contour>
      <point x="805.7053456158586" y="170.72844208264198" type="curve" smooth="yes"/>
      <point x="765.5178259257094" y="167.8867553134448"/>
      <point x="709.218740908709" y="167.1628229890602"/>
      <point x="625.8296375516499" y="168.58366637365882" type="curve" smooth="yes"/>
      <point x="617.9523219958048" y="168.71788572901022"/>
      <point x="613.3166855628841" y="177.48510521917223"/>
      <point x="617.6408599236286" y="184.07081940212842" type="curve" smooth="yes"/>
      <point x="673.7759067528705" y="269.5644519948267"/>
      <point x="791.0" y="287.793808037081"/>
      <point x="791.0" y="349.7020561473032" type="curve" smooth="yes"/>
      <point x="791.0" y="382.4721758100771"/>
      <point x="745.9337089704736" y="396.270598642227"/>
      <point x="685.0" y="396.270598642227" type="curve" smooth="yes"/>
      <point x="663.5296340214891" y="396.270598642227"/>
      <point x="641.0570680184494" y="394.19084649269155"/>
      <point x="619.5867020399385" y="390.7404279977002" type="curve" smooth="yes"/>
      <point x="604.7767274473869" y="388.3603749377925"/>
      <point x="601.6033233675099" y="408.10700772786134"/>
      <point x="616.4132979600615" y="410.487060787769" type="curve" smooth="yes"/>
      <point x="638.9524974308579" y="414.1092473305683"/>
      <point x="662.4608005292037" y="416.270598642227"/>
      <point x="685.0" y="416.270598642227" type="curve" smooth="yes"/>
      <point x="765.357629068899" y="416.270598642227"/>
      <point x="811.0" y="392.91835078777297"/>
      <point x="811.0" y="349.7020561473032" type="curve" smooth="yes"/>
      <point x="811.0" y="277.32998837440607"/>
      <point x="682.3780234515631" y="246.2263327727208"/>
      <point x="634.3591400763714" y="173.09361079818896" type="curve"/>
      <point x="626.1703624483501" y="188.58076382665857" type="line"/>
      <point x="708.7631082319945" y="187.1734893538771"/>
      <point x="764.4909214763608" y="187.8640798592317"/>
      <point x="804.2946543841414" y="190.6786288047946" type="curve" smooth="yes"/>
      <point x="819.2572944257558" y="191.73664722858248"/>
      <point x="820.6679856574731" y="171.78646050642985"/>
    </contour>
    <contour>
      <point x="558.7064495697965" y="278.44060954967296" type="curve" smooth="yes"/>
      <point x="608.7064495697965" y="404.3056166008784" type="line"/>
      <point x="624.3419232441901" y="392.8819910621632" type="line"/>
      <point x="574.3419232441901" y="351.86979775334345" type="line" smooth="yes"/>
      <point x="562.7442932483331" y="342.35691288705834"/>
      <point x="550.0604467599529" y="357.82041954820113"/>
      <point x="561.6580767558099" y="367.33330441448624" type="curve" smooth="yes"/>
      <point x="611.6580767558099" y="408.345497723306" type="line" smooth="yes"/>
      <point x="619.6420033248055" y="414.8942645195274"/>
      <point x="631.1058340548491" y="406.51853429053494"/>
      <point x="627.2935504302035" y="396.92187218459077" type="curve" smooth="yes"/>
      <point x="577.2935504302035" y="271.0568651333853" type="line" smooth="yes"/>
      <point x="571.7557421179878" y="257.1165394880801"/>
      <point x="553.1686412575808" y="264.50028390436773"/>
    </contour>
    <contour>
      <point x="865.7597392311231" y="149.32274373022085" type="curve" smooth="yes"/>
      <point x="801.7597392311231" y="171.24305394700377" type="line"/>
      <point x="814.066914482305" y="184.92148065087383" type="line"/>
      <point x="864.066914482305" y="77.44124991051866" type="line" smooth="yes"/>
      <point x="870.3938322930384" y="63.84087818706105"/>
      <point x="852.2600033284283" y="55.40498777274995"/>
      <point x="845.933085517695" y="69.00535949620756" type="curve" smooth="yes"/>
      <point x="795.933085517695" y="176.48559023656276" type="line" smooth="yes"/>
      <point x="792.2158213730679" y="184.47623839631015"/>
      <point x="799.9027630225843" y="193.0196503315338"/>
      <point x="808.2402607688769" y="190.16401694043282" type="curve" smooth="yes"/>
      <point x="872.2402607688769" y="168.2437067236499" type="line" smooth="yes"/>
      <point x="886.4309830139487" y="163.38331557033467"/>
      <point x="879.950461476195" y="144.46235257690563"/>
    </contour>
    <contour>
      <point x="714.227447441129" y="131.84446250097156" type="curve" smooth="yes"/>
      <point x="622.227447441129" y="169.3211219038586" type="line"/>
      <point x="634.1832317684748" y="172.83463144931682" type="line"/>
      <point x="560.1832317684748" y="67.47572105252124" type="line" smooth="yes"/>
      <point x="551.561856292212" y="55.20087339980903"/>
      <point x="535.1953927552624" y="66.69604070149279"/>
      <point x="543.8167682315252" y="78.97088835420499" type="curve" smooth="yes"/>
      <point x="617.8167682315252" y="184.32979875100057" type="line" smooth="yes"/>
      <point x="620.4960043284127" y="188.14441220861994"/>
      <point x="625.4554940007877" y="189.60188365736755"/>
      <point x="629.772552558871" y="187.8433082964588" type="curve" smooth="yes"/>
      <point x="721.772552558871" y="150.36664889357175" type="line" smooth="yes"/>
      <point x="735.6641923533211" y="144.70782005526524"/>
      <point x="728.1190872355792" y="126.18563366266505"/>
    </contour>
  </outline>
</glyph>
<glyph name="questiondown" format="2">
  <advance width="523"/>
  <unicode hex="00BF"/>
  <outline>
    <contour>
      <point x="25.0" y="193.4314575050762" type="curve" smooth="yes"/>
      <point x="25.000000000000036" y="319.618805852255"/>
      <point x="227.0" y="314.3678383203985"/>
      <point x="227.0" y="372.32947314527274" type="curve" smooth="yes"/>
      <point x="227.0" y="377.8523206435807"/>
      <point x="231.47715250169207" y="382.32947314527274"/>
      <point x="237.0" y="382.32947314527274" type="curve" smooth="yes"/>
      <point x="344.0" y="382.32947314527274" type="line" smooth="yes"/>
      <point x="348.94681402181965" y="382.32947314527274"/>
      <point x="353.1502519322324" y="378.7125647585233"/>
      <point x="353.8881279256743" y="373.8210917712961" type="curve" smooth="yes"/>
      <point x="371.5928705210178" y="256.45412100570576"/>
      <point x="198.0" y="251.79002225232927"/>
      <point x="198.0" y="199.79541853575512" type="curve" smooth="yes"/>
      <point x="198.0" y="177.63248094543485"/>
      <point x="242.5651250506512" y="165.2476913210026"/>
      <point x="294.0" y="165.2476913210026" type="curve" smooth="yes"/>
      <point x="357.2776102482214" y="165.2476913210026"/>
      <point x="419.70610524651875" y="184.63279599093173"/>
      <point x="473.2486985334753" y="213.5443213256927" type="curve" smooth="yes"/>
      <point x="479.91134127012083" y="217.1419648549222"/>
      <point x="488.0" y="212.31707773093564"/>
      <point x="488.0" y="204.74516600406096" type="curve" smooth="yes"/>
      <point x="488.0" y="83.82990642116133" type="line" smooth="yes"/>
      <point x="488.0" y="79.09886356317746"/>
      <point x="484.6845682279878" y="75.01518497749359"/>
      <point x="480.05444427044796" y="74.04321858821072" type="curve" smooth="yes"/>
      <point x="415.30195376848985" y="60.450225189454656"/>
      <point x="349.67018685330646" y="54.73802332912453"/>
      <point x="292.0" y="54.73802332912453" type="curve"/>
      <point x="292.0" y="54.73802332912453"/>
      <point x="292.0" y="54.73802332912453"/>
      <point x="292.0" y="54.73802332912453" type="curve"/>
      <point x="125.71353269508766" y="54.738023329124545"/>
      <point x="24.99999999999998" y="104.30857629837443"/>
    </contour>
    <contour>
      <point x="371.0" y="564.0559159102154" type="line" smooth="yes"/>
      <point x="376.52284749830795" y="564.0559159102154"/>
      <point x="381.0" y="559.5787634085233"/>
      <point x="381.0" y="554.0559159102154" type="curve" smooth="yes"/>
      <point x="381.0" y="440.2117241391813" type="line" smooth="yes"/>
      <point x="381.0" y="434.68887664087333"/>
      <point x="376.52284749830795" y="430.2117241391813"/>
      <point x="371.0" y="430.2117241391813" type="curve" smooth="yes"/>
      <point x="210.0" y="430.2117241391813" type="line" smooth="yes"/>
      <point x="204.47715250169207" y="430.2117241391813"/>
      <point x="200.0" y="434.68887664087333"/>
      <point x="200.0" y="440.2117241391813" type="curve" smooth="yes"/>
      <point x="200.0" y="554.0559159102154" type="line" smooth="yes"/>
      <point x="200.0" y="559.5787634085233"/>
      <point x="204.47715250169207" y="564.0559159102154"/>
      <point x="210.0" y="564.0559159102154" type="curve" smooth="yes"/>
    </contour>
    <contour>
      <point x="45.0" y="193.4314575050762" type="curve" smooth="yes"/>
      <point x="44.99999999999998" y="114.43811940191974"/>
      <point x="144.61334737000556" y="74.73802332912454"/>
      <point x="292.0" y="74.73802332912453" type="curve"/>
      <point x="292.0" y="74.73802332912453" type="line"/>
      <point x="348.3535138782547" y="74.73802332912453"/>
      <point x="412.6714348837924" y="80.3339436517772"/>
      <point x="475.94555572955204" y="93.61659425411193" type="curve"/>
      <point x="468.0" y="83.82990642116133" type="line"/>
      <point x="468.0" y="204.74516600406096" type="line"/>
      <point x="482.7513014665247" y="195.94601068242923" type="line"/>
      <point x="426.3179602336637" y="165.47356109384094"/>
      <point x="360.6939487297447" y="145.2476913210026"/>
      <point x="294.0" y="145.2476913210026" type="curve" smooth="yes"/>
      <point x="218.89086750289914" y="145.2476913210026"/>
      <point x="178.0" y="167.43140447650802"/>
      <point x="178.0" y="199.79541853575512" type="curve" smooth="yes"/>
      <point x="178.0" y="263.9560292209445"/>
      <point x="348.45947670772915" y="275.7257745499064"/>
      <point x="334.1118720743257" y="370.8378545192494" type="curve"/>
      <point x="344.0" y="362.32947314527274" type="line"/>
      <point x="237.0" y="362.32947314527274" type="line"/>
      <point x="247.0" y="372.32947314527274" type="line"/>
      <point x="247.0" y="301.44645648111685"/>
      <point x="45.000000000000036" y="296.61590631419296"/>
    </contour>
    <contour>
      <point x="371.0" y="544.0559159102154" type="line"/>
      <point x="210.0" y="544.0559159102154" type="line"/>
      <point x="220.0" y="554.0559159102154" type="line"/>
      <point x="220.0" y="440.2117241391813" type="line"/>
      <point x="210.0" y="450.2117241391813" type="line"/>
      <point x="371.0" y="450.2117241391813" type="line"/>
      <point x="361.0" y="440.2117241391813" type="line"/>
      <point x="361.0" y="554.0559159102154" type="line"/>
    </contour>
    <contour>
      <point x="362.53351218454765" y="434.89020329727936" type="curve" smooth="yes"/>
      <point x="282.53351218454765" y="562.1694239108579" type="line"/>
      <point x="292.63629021641276" y="557.6257253265295" type="line"/>
      <point x="211.63629021641276" y="544.1906964839851" type="line" smooth="yes"/>
      <point x="196.8384610770673" y="541.736261159366"/>
      <point x="193.5658806442418" y="561.4667000118266"/>
      <point x="208.36370978358724" y="563.9211353364457" type="curve" smooth="yes"/>
      <point x="289.36370978358724" y="577.3561641789901" type="line" smooth="yes"/>
      <point x="293.3391962065664" y="578.0155564599268"/>
      <point x="297.3220211855129" y="576.2242911107933"/>
      <point x="299.46648781545235" y="572.8124655946617" type="curve" smooth="yes"/>
      <point x="379.46648781545235" y="445.5332449810832" type="line" smooth="yes"/>
      <point x="387.44876907830525" y="432.83351325790466"/>
      <point x="370.51579344740054" y="422.1904715741008"/>
    </contour>
    <contour>
      <point x="369.3438138198948" y="544.1940171408694" type="curve" smooth="yes"/>
      <point x="289.3438138198948" y="557.6290459834138" type="line"/>
      <point x="299.43649081219195" y="562.1219948763128" type="line"/>
      <point x="218.43649081219195" y="434.8427742627342" type="line" smooth="yes"/>
      <point x="210.38306599752138" y="422.1880380444463"/>
      <point x="193.5100843731375" y="432.9259377973404"/>
      <point x="201.56350918780805" y="445.58067401562835" type="curve" smooth="yes"/>
      <point x="282.56350918780805" y="572.8598946292068" type="line" smooth="yes"/>
      <point x="284.72006960868475" y="576.2486024017411"/>
      <point x="288.69493099052636" y="578.0180882436641"/>
      <point x="292.6561861801052" y="577.3528435221058" type="curve" smooth="yes"/>
      <point x="372.6561861801052" y="563.9178146795614" type="line" smooth="yes"/>
      <point x="387.44903433412424" y="561.4335354094036"/>
      <point x="384.1366619739139" y="541.7097378707116"/>
    </contour>
    <contour>
      <point x="230.6129327647241" y="380.0239758668308" type="curve" smooth="yes"/>
      <point x="276.61293276472406" y="418.20774205090436" type="line" smooth="yes"/>
      <point x="279.93355574145124" y="420.96413099283507"/>
      <point x="284.6478418026085" y="421.2793358525223"/>
      <point x="288.3058602436622" y="418.9895502648137" type="curve" smooth="yes"/>
      <point x="349.3058602436622" y="380.8057840807402" type="line" smooth="yes"/>
      <point x="362.02032664686334" y="372.84699371524687"/>
      <point x="351.4086061595389" y="355.894371844312"/>
      <point x="338.6941397563378" y="363.8531622098053" type="curve" smooth="yes"/>
      <point x="277.6941397563378" y="402.03692839387884" type="line"/>
      <point x="289.38706723527594" y="402.8187366077882" type="line"/>
      <point x="243.3870672352759" y="364.63497042371466" type="line" smooth="yes"/>
      <point x="231.84531315293876" y="355.0543695708008"/>
      <point x="219.07117868238694" y="370.443375013917"/>
    </contour>
    <contour>
      <point x="418.3470647115019" y="186.53922172855772" type="curve" smooth="yes"/>
      <point x="376.5516409154508" y="176.44767084459318"/>
      <point x="333.7760232156596" y="170.7035354437183"/>
      <point x="293.0" y="170.7035354437183" type="curve" smooth="yes"/>
      <point x="173.23608333395376" y="170.7035354437183"/>
      <point x="100.99999999999999" y="206.9205768025707"/>
      <point x="101.0" y="266.9705627484771" type="curve" smooth="yes"/>
      <point x="101.00000000000001" y="347.3993412515625"/>
      <point x="243.52715861658763" y="364.8938260340425"/>
      <point x="274.457836980769" y="415.71241724060127" type="curve" smooth="yes"/>
      <point x="282.2566038476515" y="428.5256617694478"/>
      <point x="299.3409298861135" y="418.12730594693784"/>
      <point x="291.542163019231" y="405.3140614180913" type="curve" smooth="yes"/>
      <point x="254.225939231731" y="344.0041250597129"/>
      <point x="121.00000000000001" y="333.63809999921006"/>
      <point x="121.0" y="266.9705627484771" type="curve" smooth="yes"/>
      <point x="120.99999999999999" y="216.99491013689644"/>
      <point x="193.32837143215625" y="190.7035354437183"/>
      <point x="293.0" y="190.7035354437183" type="curve" smooth="yes"/>
      <point x="332.2125980899988" y="190.7035354437183"/>
      <point x="373.46002224624937" y="196.27592462500368"/>
      <point x="413.6529352884981" y="205.98054753108698" type="curve" smooth="yes"/>
      <point x="428.23392964039505" y="209.50114459833983"/>
      <point x="432.92805906339885" y="190.05981879581057"/>
    </contour>
    <contour>
      <point x="479.3559538441167" y="194.83752303650178" type="curve" smooth="yes"/>
      <point x="417.3559538441167" y="186.35224166226317" type="line"/>
      <point x="424.75677593026643" y="201.08884676542735" type="line"/>
      <point x="486.75677593026643" y="88.65886855676631" type="line" smooth="yes"/>
      <point x="494.0002191336739" y="75.52370466136668"/>
      <point x="476.48666727314105" y="65.86578039015671"/>
      <point x="469.24322406973357" y="79.00094428555634" type="curve" smooth="yes"/>
      <point x="407.24322406973357" y="191.43092249421736" type="line" smooth="yes"/>
      <point x="403.85277377574323" y="197.5791201179413"/>
      <point x="407.687816210646" y="205.21550230078086"/>
      <point x="414.6440461558833" y="206.16752759738154" type="curve" smooth="yes"/>
      <point x="476.6440461558833" y="214.65280897162015" type="line" smooth="yes"/>
      <point x="491.5055106072221" y="216.6867397377952"/>
      <point x="494.2174182954555" y="196.87145380267683"/>
    </contour>
  </outline>
</glyph>
<glyph name="multiply" format="2">
  <advance width="535"/>
  <unicode hex="00D7"/>
  <outline>
    <contour>
      <point x="148.77350269189625" y="127.28373563850202" type="line" smooth="yes"/>
      <point x="145.31332903864498" y="124.83702338420503"/>
      <point x="140.68667096135502" y="124.83702338420503"/>
      <point x="137.22649730810375" y="127.28373563850202" type="curve" smooth="yes"/>
      <point x="42.226497308103745" y="194.45887985122405" type="line" smooth="yes"/>
      <point x="36.59116756396543" y="198.44365972752652"/>
      <point x="36.59116756396542" y="206.80403159347608"/>
      <point x="42.22649730810374" y="210.78881146977855" type="curve" smooth="yes"/>
      <point x="167.22649730810375" y="299.177159118097" type="line"/>
      <point x="167.22649730810375" y="282.8472274995425" type="line"/>
      <point x="42.226497308103745" y="371.23557514786097" type="line" smooth="yes"/>
      <point x="36.59116756396543" y="375.22035502416344"/>
      <point x="36.59116756396542" y="383.580726890113"/>
      <point x="42.22649730810374" y="387.56550676641547" type="curve" smooth="yes"/>
      <point x="137.22649730810375" y="454.74065097913746" type="line" smooth="yes"/>
      <point x="140.686670961355" y="457.18736323343444"/>
      <point x="145.313329038645" y="457.18736323343444"/>
      <point x="148.77350269189625" y="454.74065097913746" type="curve" smooth="yes"/>
      <point x="273.7735026918963" y="366.35230333081904" type="line"/>
      <point x="262.2264973081037" y="366.35230333081904" type="line"/>
      <point x="387.2264973081037" y="454.74065097913746" type="line" smooth="yes"/>
      <point x="390.6866709613549" y="457.1873632334344"/>
      <point x="395.3133290386451" y="457.1873632334344"/>
      <point x="398.7735026918963" y="454.74065097913746" type="curve" smooth="yes"/>
      <point x="493.7735026918963" y="387.56550676641547" type="line" smooth="yes"/>
      <point x="499.4088324360347" y="383.58072689011294"/>
      <point x="499.4088324360347" y="375.2203550241635"/>
      <point x="493.7735026918963" y="371.23557514786097" type="curve" smooth="yes"/>
      <point x="368.7735026918963" y="282.8472274995425" type="line"/>
      <point x="368.7735026918963" y="299.177159118097" type="line"/>
      <point x="493.7735026918963" y="210.78881146977855" type="line" smooth="yes"/>
      <point x="499.4088324360347" y="206.80403159347603"/>
      <point x="499.4088324360347" y="198.44365972752658"/>
      <point x="493.7735026918963" y="194.45887985122405" type="curve" smooth="yes"/>
      <point x="398.7735026918963" y="127.28373563850202" type="line" smooth="yes"/>
      <point x="395.3133290386451" y="124.83702338420508"/>
      <point x="390.6866709613549" y="124.83702338420508"/>
      <point x="387.2264973081037" y="127.28373563850202" type="curve" smooth="yes"/>
      <point x="262.2264973081037" y="215.67208328682048" type="line"/>
      <point x="273.7735026918963" y="215.67208328682048" type="line"/>
    </contour>
    <contour>
      <point x="137.22649730810375" y="143.61366725705653" type="line"/>
      <point x="262.2264973081037" y="232.00201490537498" type="line" smooth="yes"/>
      <point x="265.6866709613549" y="234.44872715967188"/>
      <point x="270.3133290386451" y="234.44872715967188"/>
      <point x="273.7735026918963" y="232.00201490537498" type="curve" smooth="yes"/>
      <point x="398.7735026918963" y="143.61366725705653" type="line"/>
      <point x="387.2264973081037" y="143.61366725705653" type="line"/>
      <point x="482.2264973081037" y="210.78881146977855" type="line"/>
      <point x="482.2264973081037" y="194.45887985122405" type="line"/>
      <point x="357.2264973081037" y="282.8472274995425" type="line" smooth="yes"/>
      <point x="351.5911675639653" y="286.832007375845"/>
      <point x="351.5911675639653" y="295.19237924179447"/>
      <point x="357.2264973081037" y="299.177159118097" type="curve" smooth="yes"/>
      <point x="482.2264973081037" y="387.56550676641547" type="line"/>
      <point x="482.2264973081037" y="371.23557514786097" type="line"/>
      <point x="387.2264973081037" y="438.41071936058296" type="line"/>
      <point x="398.7735026918963" y="438.41071936058296" type="line"/>
      <point x="273.7735026918963" y="350.02237171226454" type="line" smooth="yes"/>
      <point x="270.3133290386451" y="347.5756594579676"/>
      <point x="265.6866709613549" y="347.5756594579676"/>
      <point x="262.2264973081037" y="350.02237171226454" type="curve" smooth="yes"/>
      <point x="137.22649730810375" y="438.41071936058296" type="line"/>
      <point x="148.77350269189625" y="438.41071936058296" type="line"/>
      <point x="53.77350269189626" y="371.23557514786097" type="line"/>
      <point x="53.773502691896255" y="387.56550676641547" type="line"/>
      <point x="178.77350269189625" y="299.177159118097" type="line" smooth="yes"/>
      <point x="184.40883243603457" y="295.1923792417945"/>
      <point x="184.40883243603457" y="286.83200737584497"/>
      <point x="178.77350269189625" y="282.8472274995425" type="curve" smooth="yes"/>
      <point x="53.77350269189626" y="194.45887985122405" type="line"/>
      <point x="53.773502691896255" y="210.78881146977855" type="line"/>
      <point x="148.77350269189625" y="143.61366725705653" type="line"/>
    </contour>
    <contour>
      <point x="388.2264973081037" y="264.4624511886922" type="curve" smooth="yes"/>
      <point x="262.2264973081037" y="353.55790561819725" type="line"/>
      <point x="136.22649730810375" y="442.6533600477022" type="line" smooth="yes"/>
      <point x="123.97904859418786" y="451.3136140855466"/>
      <point x="135.52605397798035" y="467.6435457041011"/>
      <point x="147.77350269189625" y="458.9832916662567" type="curve" smooth="yes"/>
      <point x="273.7735026918963" y="369.88783723675175" type="line"/>
      <point x="399.7735026918963" y="280.7923828072467" type="line" smooth="yes"/>
      <point x="412.0209514058122" y="272.13212876940236"/>
      <point x="400.4739460220196" y="255.80219715084783"/>
    </contour>
    <contour>
      <point x="399.7735026918963" y="442.6533600477022" type="curve" smooth="yes"/>
      <point x="273.7735026918963" y="353.55790561819725" type="line"/>
      <point x="147.77350269189625" y="264.4624511886922" type="line" smooth="yes"/>
      <point x="135.52605397798038" y="255.80219715084783"/>
      <point x="123.97904859418786" y="272.13212876940236"/>
      <point x="136.22649730810375" y="280.7923828072467" type="curve" smooth="yes"/>
      <point x="262.2264973081037" y="369.88783723675175" type="line"/>
      <point x="388.2264973081037" y="458.9832916662567" type="line" smooth="yes"/>
      <point x="400.4739460220196" y="467.6435457041011"/>
      <point x="412.0209514058122" y="451.3136140855466"/>
    </contour>
    <contour>
      <point x="133.00026569246103" y="135.37580577830585" type="curve" smooth="yes"/>
      <point x="132.00026569246103" y="272.55452132849604" type="line"/>
      <point x="147.97285747272994" y="264.60713186522923" type="line"/>
      <point x="53.97285747272995" y="194.60356052776106" type="line" smooth="yes"/>
      <point x="41.9424297736196" y="185.64427431866613"/>
      <point x="29.996714828159703" y="201.68484458414662"/>
      <point x="42.02714252727005" y="210.64413079324154" type="curve" smooth="yes"/>
      <point x="136.02714252727006" y="280.6477021307097" type="line" smooth="yes"/>
      <point x="142.59683448245687" y="285.54027552911515"/>
      <point x="151.94002295247097" y="280.8914396594329"/>
      <point x="151.99973430753897" y="272.7003126674429" type="curve" smooth="yes"/>
      <point x="152.99973430753897" y="135.52159711725272" type="line" smooth="yes"/>
      <point x="153.10907781174916" y="120.52199565594427"/>
      <point x="133.10960919667122" y="120.37620431699739"/>
    </contour>
    <contour>
      <point x="383.26671473215424" y="448.86984250856585" type="curve" smooth="yes"/>
      <point x="384.26671473215424" y="453.1124831956851" type="line" smooth="yes"/>
      <point x="385.9269196907085" y="460.15613630180445"/>
      <point x="394.28742422476256" y="463.1587762903621"/>
      <point x="400.0496397885077" y="458.7808542512337" type="curve" smooth="yes"/>
      <point x="494.0496397885077" y="387.3630693513924" type="line" smooth="yes"/>
      <point x="505.993432379889" y="378.28860966863084"/>
      <point x="493.8941528028736" y="362.3635528801224"/>
      <point x="481.9503602114923" y="371.438012562884" type="curve" smooth="yes"/>
      <point x="387.9503602114923" y="442.85579746272526" type="line"/>
      <point x="403.73328526784576" y="448.5241685182738" type="line"/>
      <point x="402.73328526784576" y="444.28152783115456" type="line" smooth="yes"/>
      <point x="399.29204925978735" y="429.6815999293859"/>
      <point x="379.82547872409583" y="434.2699146067972"/>
    </contour>
    <contour>
      <point x="482.02714252727003" y="194.60356052776106" type="curve" smooth="yes"/>
      <point x="388.02714252727003" y="264.60713186522923" type="line"/>
      <point x="403.999734307539" y="272.55452132849604" type="line"/>
      <point x="402.999734307539" y="135.37580577830585" type="line" smooth="yes"/>
      <point x="402.8903908033288" y="120.37620431699739"/>
      <point x="382.89092218825084" y="120.52199565594427"/>
      <point x="383.000265692461" y="135.52159711725272" type="curve" smooth="yes"/>
      <point x="384.000265692461" y="272.7003126674429" type="line" smooth="yes"/>
      <point x="384.059977047529" y="280.8914396594331"/>
      <point x="393.403165517543" y="285.54027552911526"/>
      <point x="399.97285747272997" y="280.6477021307097" type="curve" smooth="yes"/>
      <point x="493.97285747272997" y="210.64413079324154" type="line" smooth="yes"/>
      <point x="506.00328517184033" y="201.68484458414662"/>
      <point x="494.0575702263804" y="185.64427431866613"/>
    </contour>
    <contour>
      <point x="41.95036021149229" y="387.3630693513924" type="curve" smooth="yes"/>
      <point x="135.9503602114923" y="458.7808542512337" type="line" smooth="yes"/>
      <point x="141.71257577523753" y="463.15877629036214"/>
      <point x="150.0730803092915" y="460.15613630180457"/>
      <point x="151.73328526784576" y="453.1124831956851" type="curve" smooth="yes"/>
      <point x="152.73328526784576" y="448.86984250856585" type="line" smooth="yes"/>
      <point x="156.17452127590417" y="434.2699146067972"/>
      <point x="136.70795074021265" y="429.6815999293859"/>
      <point x="133.26671473215424" y="444.28152783115456" type="curve" smooth="yes"/>
      <point x="132.26671473215424" y="448.5241685182738" type="line"/>
      <point x="148.0496397885077" y="442.85579746272526" type="line"/>
      <point x="54.04963978850771" y="371.438012562884" type="line" smooth="yes"/>
      <point x="42.10584719712641" y="362.3635528801224"/>
      <point x="30.006567620110985" y="378.28860966863084"/>
    </contour>
    <contour>
      <point x="258.0" y="358.1873375215418" type="curve" smooth="yes"/>
      <point x="258.0" y="361.7228714274745" type="line"/>
      <point x="278.0" y="361.7228714274745" type="line"/>
      <point x="278.0" y="223.83704909609773" type="line" smooth="yes"/>
      <point x="278.0" y="208.83704909609773"/>
      <point x="258.0" y="208.83704909609773"/>
      <point x="258.0" y="223.83704909609773" type="curve" smooth="yes"/>
      <point x="258.0" y="361.7228714274745" type="line" smooth="yes"/>
      <point x="258.0" y="375.0562047608078"/>
      <point x="278.0" y="375.0562047608078"/>
      <point x="278.0" y="361.7228714274745" type="curve" smooth="yes"/>
      <point x="278.0" y="358.1873375215418" type="line" smooth="yes"/>
      <point x="278.0" y="343.1873375215418"/>
      <point x="258.0" y="343.1873375215418"/>
    </contour>
    <contour>
      <point x="167.02918565973468" y="299.033999596314" type="curve" smooth="yes"/>
      <point x="262.0291856597347" y="369.74467771496876" type="line" smooth="yes"/>
      <point x="265.57279760422205" y="372.38226933164316"/>
      <point x="270.427202395778" y="372.38226933164316"/>
      <point x="273.97081434026535" y="369.74467771496876" type="curve" smooth="yes"/>
      <point x="368.97081434026535" y="299.033999596314" type="line" smooth="yes"/>
      <point x="381.0035237715067" y="290.077778085916"/>
      <point x="369.061895090976" y="274.0341655109275"/>
      <point x="357.02918565973465" y="282.9903870213255" type="curve" smooth="yes"/>
      <point x="262.02918565973465" y="353.70106513998024" type="line"/>
      <point x="273.9708143402653" y="353.70106513998024" type="line"/>
      <point x="178.97081434026532" y="282.9903870213255" type="line" smooth="yes"/>
      <point x="166.93810490902396" y="274.0341655109275"/>
      <point x="154.99647622849332" y="290.077778085916"/>
    </contour>
  </outline>
</glyph>
<glyph name="quotedblbase" format="2">
  <advance width="499"/>
  <unicode hex="201E"/>
  <outline>
    <contour>
      <point x="285.0" y="240.0" type="line"/>
      <point x="285.0" y="260.0" type="line"/>
      <point x="320.64297442407593" y="260.0"/>
      <point x="336.1371881915173" y="239.99999999999994"/>
      <point x="250.0" y="239.99999999999991" type="curve"/>
      <point x="250.0" y="259.9999999999999" type="line"/>
      <point x="262.2180321462623" y="259.99999999999994"/>
      <point x="452.7541995152012" y="239.99999999999994"/>
      <point x="452.0" y="240.0" type="curve"/>
      <point x="452.0" y="240.0" type="line"/>
    </contour>
    <contour>
      <point x="285.0" y="240.0" type="line"/>
      <point x="285.0" y="260.0" type="line"/>
      <point x="320.64297442407593" y="260.0"/>
      <point x="336.1371881915173" y="239.99999999999994"/>
      <point x="250.0" y="239.99999999999991" type="curve"/>
      <point x="250.0" y="259.9999999999999" type="line"/>
      <point x="262.2180321462623" y="259.99999999999994"/>
      <point x="452.7541995152012" y="239.99999999999994"/>
      <point x="452.0" y="240.0" type="curve"/>
      <point x="452.0" y="240.0" type="line"/>
    </contour>
    <contour>
      <point x="285.0" y="260.0" type="curve" smooth="yes"/>
      <point x="452.0" y="260.0" type="line"/>
      <point x="452.0" y="260.0"/>
      <point x="452.0" y="260.0"/>
      <point x="452.0" y="260.0" type="curve"/>
      <point x="469.1031577029272" y="259.99999999999994"/>
      <point x="527.0711547874198" y="239.99999999999994"/>
      <point x="250.0" y="239.99999999999991" type="curve" smooth="yes"/>
      <point x="236.6666666666667" y="239.99999999999991"/>
      <point x="236.6666666666667" y="259.9999999999999"/>
      <point x="250.0" y="259.9999999999999" type="curve" smooth="yes"/>
      <point x="254.37435718816812" y="259.99999999999994"/>
      <point x="286.81007883648346" y="239.99999999999997"/>
      <point x="285.0" y="240.0" type="curve" smooth="yes"/>
      <point x="271.6666666666667" y="240.0"/>
      <point x="271.6666666666667" y="260.0"/>
    </contour>
    <contour>
      <point x="250.0" y="259.9999999999999" type="curve" smooth="yes"/>
      <point x="356.0055842976061" y="259.99999999999994"/>
      <point x="371.7815450080735" y="259.99999999999994"/>
      <point x="373.0" y="260.0" type="curve" smooth="yes"/>
      <point x="388.0" y="260.0"/>
      <point x="388.0" y="239.99999999999997"/>
      <point x="373.0" y="239.99999999999997" type="curve" smooth="yes"/>
      <point x="372.18236320098544" y="239.99999999999994"/>
      <point x="321.1344015142644" y="239.99999999999994"/>
      <point x="250.0" y="239.99999999999991" type="curve" smooth="yes"/>
      <point x="235.0" y="239.99999999999991"/>
      <point x="235.0" y="259.9999999999999"/>
    </contour>
    <contour>
      <point x="285.0" y="260.0" type="curve" smooth="yes"/>
      <point x="373.0" y="260.0" type="line"/>
      <point x="373.0" y="260.0" type="line"/>
      <point x="452.0" y="260.0" type="line" smooth="yes"/>
      <point x="467.0" y="260.0"/>
      <point x="467.0" y="240.0"/>
      <point x="452.0" y="240.0" type="curve" smooth="yes"/>
      <point x="373.0" y="239.99999999999997" type="line"/>
      <point x="373.0" y="239.99999999999997"/>
      <point x="373.0" y="239.99999999999997"/>
      <point x="373.0" y="239.99999999999997" type="curve"/>
      <point x="285.0" y="240.0" type="line" smooth="yes"/>
      <point x="270.0" y="240.0"/>
      <point x="270.0" y="260.0"/>
    </contour>
    <contour>
      <point x="285.0" y="260.0" type="curve" smooth="yes"/>
      <point x="452.0" y="260.0" type="line"/>
      <point x="452.0" y="260.0"/>
      <point x="452.0" y="260.0"/>
      <point x="452.0" y="260.0" type="curve"/>
      <point x="469.1031577029272" y="259.99999999999994"/>
      <point x="527.0711547874198" y="239.99999999999994"/>
      <point x="250.0" y="239.99999999999991" type="curve" smooth="yes"/>
      <point x="236.6666666666667" y="239.99999999999991"/>
      <point x="236.6666666666667" y="259.9999999999999"/>
      <point x="250.0" y="259.9999999999999" type="curve" smooth="yes"/>
      <point x="254.37435718816812" y="259.99999999999994"/>
      <point x="286.81007883648346" y="239.99999999999997"/>
      <point x="285.0" y="240.0" type="curve" smooth="yes"/>
      <point x="271.6666666666667" y="240.0"/>
      <point x="271.6666666666667" y="260.0"/>
    </contour>
    <contour>
      <point x="250.0" y="259.9999999999999" type="curve" smooth="yes"/>
      <point x="356.0055842976061" y="259.99999999999994"/>
      <point x="371.7815450080735" y="259.99999999999994"/>
      <point x="373.0" y="260.0" type="curve" smooth="yes"/>
      <point x="388.0" y="260.0"/>
      <point x="388.0" y="239.99999999999997"/>
      <point x="373.0" y="239.99999999999997" type="curve" smooth="yes"/>
      <point x="372.18236320098544" y="239.99999999999994"/>
      <point x="321.1344015142644" y="239.99999999999994"/>
      <point x="250.0" y="239.99999999999991" type="curve" smooth="yes"/>
      <point x="235.0" y="239.99999999999991"/>
      <point x="235.0" y="259.9999999999999"/>
    </contour>
    <contour>
      <point x="285.0" y="260.0" type="curve" smooth="yes"/>
      <point x="373.0" y="260.0" type="line"/>
      <point x="373.0" y="260.0" type="line"/>
      <point x="452.0" y="260.0" type="line" smooth="yes"/>
      <point x="467.0" y="260.0"/>
      <point x="467.0" y="240.0"/>
      <point x="452.0" y="240.0" type="curve" smooth="yes"/>
      <point x="373.0" y="239.99999999999997" type="line"/>
      <point x="373.0" y="239.99999999999997"/>
      <point x="373.0" y="239.99999999999997"/>
      <point x="373.0" y="239.99999999999997" type="curve"/>
      <point x="285.0" y="240.0" type="line" smooth="yes"/>
      <point x="270.0" y="240.0"/>
      <point x="270.0" y="260.0"/>
    </contour>
  </outline>
</glyph>
<glyph name="Q.alt" format="2">
  <advance width="740"/>
  <outline>
    <contour>
      <point x="370.0" y="54.73802332912453" type="curve" smooth="yes"/>
      <point x="170.67646449855332" y="54.73802332912465"/>
      <point x="27.00000000000002" y="163.9101219467893"/>
      <point x="27.0" y="314.34671708797583" type="curve" smooth="yes"/>
      <point x="26.99999999999998" y="464.0530374954673"/>
      <point x="170.67646449855332" y="572.541197284454"/>
      <point x="370.0" y="572.541197284454" type="curve" smooth="yes"/>
      <point x="568.2907710687965" y="572.541197284454"/>
      <point x="713.0" y="464.0530374954673"/>
      <point x="713.0" y="314.34671708797583" type="curve" smooth="yes"/>
      <point x="713.0" y="227.43649855900077"/>
      <point x="664.2189788540658" y="154.13085908131072"/>
      <point x="585.0568573185665" y="107.7296407141461" type="curve"/>
      <point x="587.6249285166302" y="122.82678474794882" type="line"/>
      <point x="608.61587236981" y="98.08872017779957"/>
      <point x="633.615289024201" y="68.39093431627526"/>
      <point x="662.6027829166874" y="34.46444576292776" type="curve" smooth="yes"/>
      <point x="668.1478418302222" y="27.97459953974532"/>
      <point x="663.5361456381161" y="17.968470707424075"/>
      <point x="655.0" y="17.968470707424075" type="curve" smooth="yes"/>
      <point x="495.0" y="17.968470707424075" type="line" smooth="yes"/>
      <point x="489.8183759186314" y="17.968470707424075"/>
      <point x="485.4950516600329" y="21.926518607715217"/>
      <point x="485.03883509816495" y="27.08801980109845" type="curve" smooth="yes"/>
      <point x="484.1668042395406" y="36.95392273769415"/>
      <point x="477.74201665581563" y="49.107816303414594"/>
      <point x="462.9174920592011" y="69.45624111014327" type="curve"/>
      <point x="473.2238701440076" y="65.59504035922494" type="line"/>
      <point x="441.5275293135443" y="58.365137926960216"/>
      <point x="406.8086538676348" y="54.738023329124516"/>
    </contour>
    <contour>
      <point x="370.0" y="164.54058453981608" type="curve" smooth="yes"/>
      <point x="381.6064737144701" y="164.54058453981608"/>
      <point x="393.2231148135686" y="165.22533950174324"/>
      <point x="404.8295885280387" y="166.59317554660413" type="curve"/>
      <point x="398.42686066149156" y="150.131394906388" type="line"/>
      <point x="374.18780518616575" y="178.24033972009013"/>
      <point x="344.5325641475799" y="214.6092882165683"/>
      <point x="304.4248418858806" y="261.1495013680665" type="curve" smooth="yes"/>
      <point x="298.83927909000323" y="267.6308787296389"/>
      <point x="303.4439048480167" y="277.6776695296637"/>
      <point x="312.0" y="277.6776695296637" type="curve" smooth="yes"/>
      <point x="472.0" y="277.6776695296637" type="line" smooth="yes"/>
      <point x="477.2348886401401" y="277.6776695296637"/>
      <point x="481.58384386089244" y="273.64038668920614"/>
      <point x="481.97241374054806" y="268.4199391486889" type="curve" smooth="yes"/>
      <point x="482.8488047534655" y="256.6456006127955"/>
      <point x="493.15232808401225" y="239.86490008313535"/>
      <point x="515.9384944198674" y="210.11920272929925" type="curve"/>
      <point x="500.9460091406766" y="211.12616284490068" type="line"/>
      <point x="526.2294547813345" y="236.28792739461514"/>
      <point x="541.0" y="271.3068566739906"/>
      <point x="541.0" y="314.34671708797583" type="curve" smooth="yes"/>
      <point x="541.0" y="407.3549991833979"/>
      <point x="472.1987481068763" y="462.73863607376245"/>
      <point x="370.0" y="462.73863607376245" type="curve" smooth="yes"/>
      <point x="267.8012518931237" y="462.73863607376245"/>
      <point x="199.00000000000003" y="408.02412351501954"/>
      <point x="199.0" y="314.34671708797583" type="curve" smooth="yes"/>
      <point x="198.99999999999997" y="220.66931066093207"/>
      <point x="267.8012518931237" y="164.54058453981608"/>
    </contour>
    <contour>
      <point x="370.0" y="190.7035354437183" type="curve" smooth="yes"/>
      <point x="415.59467870039924" y="190.7035354437183"/>
      <point x="456.23067804094023" y="198.4210229519989"/>
      <point x="491.24677824918496" y="212.59989663664385" type="curve" smooth="yes"/>
      <point x="568.2986003996688" y="243.80006018844347"/>
      <point x="617.0" y="304.9199260248418"/>
      <point x="617.0" y="385.0573952066306" type="curve" smooth="yes"/>
      <point x="617.0" y="501.6985944896437"/>
      <point x="513.85659821875" y="577.9970414071697"/>
      <point x="370.0" y="577.9970414071697" type="curve" smooth="yes"/>
      <point x="226.07341058957846" y="577.9970414071697"/>
      <point x="123.00000000000003" y="502.43382090111623"/>
      <point x="123.0" y="385.0573952066306" type="curve" smooth="yes"/>
      <point x="122.99999999999997" y="267.6809695121449"/>
      <point x="226.07341058957846" y="190.7035354437183"/>
    </contour>
    <contour>
      <point x="370.0" y="74.73802332912453" type="curve" smooth="yes"/>
      <point x="405.20368072017317" y="74.73802332912452"/>
      <point x="438.4618492358432" y="78.17955380129816"/>
      <point x="468.7761298559924" y="85.09420973462055" type="curve" smooth="yes"/>
      <point x="472.67458353456277" y="85.98344297083304"/>
      <point x="476.72798795307693" y="84.4648679626432"/>
      <point x="479.0825079407989" y="81.23300898370222" type="curve" smooth="yes"/>
      <point x="498.09309274189644" y="55.13871821329785"/>
      <point x="503.8428952076528" y="41.50069895697604"/>
      <point x="504.96116490183505" y="28.8489216137497" type="curve"/>
      <point x="495.0" y="37.968470707424075" type="line"/>
      <point x="655.0" y="37.968470707424075" type="line"/>
      <point x="647.3972170833126" y="21.47249565192039" type="line"/>
      <point x="618.3779475472467" y="55.43617389859457"/>
      <point x="593.3890252853483" y="85.12166990866965"/>
      <point x="572.3750714833698" y="109.88685196353622" type="curve" smooth="yes"/>
      <point x="568.3552222825326" y="114.62428967896832"/>
      <point x="569.5829984324886" y="121.84212436794786"/>
      <point x="574.9431426814335" y="124.98399599733894" type="curve" smooth="yes"/>
      <point x="647.7940421073847" y="167.6858643522948"/>
      <point x="693.0" y="234.36543985170925"/>
      <point x="693.0" y="314.34671708797583" type="curve" smooth="yes"/>
      <point x="693.0" y="454.549911686216"/>
      <point x="555.7035794315228" y="552.541197284454"/>
      <point x="370.0" y="552.541197284454" type="curve" smooth="yes"/>
      <point x="183.3292144256046" y="552.541197284454"/>
      <point x="46.99999999999998" y="454.549911686216"/>
      <point x="47.0" y="314.34671708797583" type="curve" smooth="yes"/>
      <point x="47.00000000000002" y="173.45960446730518"/>
      <point x="183.3292144256046" y="74.73802332912464"/>
    </contour>
    <contour>
      <point x="370.0" y="144.54058453981608" type="curve" smooth="yes"/>
      <point x="256.2406772627325" y="144.54058453981608"/>
      <point x="178.99999999999997" y="210.07265788149877"/>
      <point x="179.0" y="314.34671708797583" type="curve" smooth="yes"/>
      <point x="179.00000000000003" y="418.6207762944528"/>
      <point x="256.2406772627325" y="482.73863607376245"/>
      <point x="370.0" y="482.73863607376245" type="curve" smooth="yes"/>
      <point x="483.8162023986362" y="482.73863607376245"/>
      <point x="561.0" y="417.92772620808404"/>
      <point x="561.0" y="314.34671708797583" type="curve" smooth="yes"/>
      <point x="561.0" y="265.4704142882379"/>
      <point x="543.7660111369721" y="225.52379416069485"/>
      <point x="515.0539908593234" y="196.94995560084814" type="curve" smooth="yes"/>
      <point x="510.77643327932816" y="192.69298452952364"/>
      <point x="503.73137877726145" y="193.16616084177028"/>
      <point x="500.0615055801325" y="197.95691571644957" type="curve" smooth="yes"/>
      <point x="471.17561806858026" y="235.66535929800725"/>
      <point x="463.1385819329733" y="252.00914099293857"/>
      <point x="462.02758625945194" y="266.9353999106385" type="curve"/>
      <point x="472.0" y="257.6776695296637" type="line"/>
      <point x="312.0" y="257.6776695296637" type="line"/>
      <point x="319.5751581141194" y="274.2058376912609" type="line"/>
      <point x="357.4069911188986" y="230.30652173245662"/>
      <point x="387.8759160048108" y="192.99233149851685"/>
      <point x="413.57313933850844" y="163.1924148603634" type="curve" smooth="yes"/>
      <point x="418.80766107383624" y="157.12217492324083"/>
      <point x="415.130808489848" y="147.66877600552812"/>
      <point x="407.1704114719613" y="146.7306342201473" type="curve" smooth="yes"/>
      <point x="394.77723828016144" y="145.27008475275713"/>
      <point x="382.39317319179986" y="144.54058453981608"/>
    </contour>
    <contour>
      <point x="370.0" y="170.7035354437183" type="curve" smooth="yes"/>
      <point x="213.91509458026562" y="170.7035354437183"/>
      <point x="102.99999999999997" y="257.7655002337917"/>
      <point x="103.0" y="385.0573952066306" type="curve" smooth="yes"/>
      <point x="103.00000000000003" y="512.3492901794696"/>
      <point x="213.91509458026562" y="597.9970414071697"/>
      <point x="370.0" y="597.9970414071697" type="curve" smooth="yes"/>
      <point x="526.0849054197344" y="597.9970414071697"/>
      <point x="637.0" y="511.6134988790484"/>
      <point x="637.0" y="385.0573952066306" type="curve" smooth="yes"/>
      <point x="637.0" y="296.8821042899115"/>
      <point x="583.5333739461652" y="228.39156127502144"/>
      <point x="498.75322175081504" y="194.0620082467318" type="curve" smooth="yes"/>
      <point x="461.56826482447855" y="179.00491153716308"/>
      <point x="418.41876032629403" y="170.7035354437183"/>
    </contour>
    <contour>
      <point x="536.0765560397263" y="133.59060153982307" type="curve" smooth="yes"/>
      <point x="487.07655603972626" y="197.23021184661235" type="line"/>
      <point x="415.0598076204854" y="291.29722803822654" type="line" smooth="yes"/>
      <point x="405.9414181685772" y="303.20751660749846"/>
      <point x="421.82180292760637" y="315.36536921004273"/>
      <point x="430.9401923795146" y="303.4550806407708" type="curve" smooth="yes"/>
      <point x="502.92344396027374" y="209.4316930367633" type="line"/>
      <point x="551.9234439602737" y="145.79208272997403" type="line" smooth="yes"/>
      <point x="561.074554852887" y="133.90691678956344"/>
      <point x="545.2276669323395" y="121.70543559941248"/>
    </contour>
    <contour>
      <point x="647.9060196283607" y="20.920389941229924" type="curve" smooth="yes"/>
      <point x="536.9060196283607" y="132.6432613687044" type="line"/>
      <point x="553.1579200603643" y="135.67481376228906" type="line"/>
      <point x="504.1579200603643" y="23.9519423348146" type="line" smooth="yes"/>
      <point x="498.1331275014501" y="10.215062244268132"/>
      <point x="479.8172873807215" y="18.248118989487082"/>
      <point x="485.8420799396357" y="31.98499908003355" type="curve" smooth="yes"/>
      <point x="534.8420799396357" y="143.70787050750803" type="line" smooth="yes"/>
      <point x="537.6747438694895" y="150.16651026326915"/>
      <point x="546.1233086101142" y="151.7424654427237"/>
      <point x="551.0939803716393" y="146.7394229010927" type="curve" smooth="yes"/>
      <point x="662.0939803716393" y="35.01655147361823" type="line" smooth="yes"/>
      <point x="672.6661015209305" y="24.37558091615924"/>
      <point x="658.4781407776519" y="10.279419383770936"/>
    </contour>
    <contour>
      <point x="309.415372380432" y="277.33788174618184" type="curve" smooth="yes"/>
      <point x="420.415372380432" y="307.0363665560168" type="line" smooth="yes"/>
      <point x="423.04751911032963" y="307.7406077242611"/>
      <point x="425.85305954465" y="307.34030022690126"/>
      <point x="428.18321055348815" y="305.92801544444" type="curve" smooth="yes"/>
      <point x="477.18321055348815" y="276.2295306346051" type="line" smooth="yes"/>
      <point x="490.0110022109002" y="268.4547148043729"/>
      <point x="479.6445811039239" y="251.3509925944901"/>
      <point x="466.81678944651185" y="259.1258084247223" type="curve" smooth="yes"/>
      <point x="417.81678944651185" y="288.82429323455733" type="line"/>
      <point x="425.584627619568" y="287.71594212298055" type="line"/>
      <point x="314.584627619568" y="258.0174573131456" type="line" smooth="yes"/>
      <point x="300.0943092947908" y="254.14051588379363"/>
      <point x="294.9250540556548" y="273.46094031682986"/>
    </contour>
    <contour>
      <point x="508.5431254465936" y="194.052819378521" type="curve" smooth="yes"/>
      <point x="495.5431254465936" y="193.34571259733443" type="line"/>
      <point x="504.8286862076293" y="201.48787690553684" type="line"/>
      <point x="480.8286862076293" y="73.50154951077175" type="line" smooth="yes"/>
      <point x="478.0640729034028" y="58.758520199327855"/>
      <point x="458.4067004881442" y="62.444671271629836"/>
      <point x="461.1713137923707" y="77.18770058307373" type="curve" smooth="yes"/>
      <point x="485.1713137923707" y="205.17402797783882" type="line" smooth="yes"/>
      <point x="486.0206657311453" y="209.70342111572967"/>
      <point x="489.8553361711858" y="213.06590159419827"/>
      <point x="494.4568745534064" y="213.31619228604123" type="curve" smooth="yes"/>
      <point x="507.4568745534064" y="214.0232990672278" type="line" smooth="yes"/>
      <point x="522.4347343199365" y="214.83798723711823"/>
      <point x="523.5209852131237" y="194.86750754841142"/>
    </contour>
    <contour>
      <point x="401.35602629940104" y="165.5181743162772" type="curve" smooth="yes"/>
      <point x="490.35602629940104" y="212.1872218745893" type="line" smooth="yes"/>
      <point x="494.2686375755071" y="214.23888301753067"/>
      <point x="499.06390390784946" y="213.47996842704984"/>
      <point x="502.15176717730725" y="210.32038920308645" type="curve" smooth="yes"/>
      <point x="587.1517671773073" y="123.34625511714114" type="line" smooth="yes"/>
      <point x="597.6359223194053" y="112.61860435118022"/>
      <point x="583.3323879647907" y="98.63973082838298"/>
      <point x="572.8482328226927" y="109.3673815943439" type="curve" smooth="yes"/>
      <point x="487.84823282269275" y="196.3415156802892" type="line"/>
      <point x="499.64397370059896" y="194.47468300878634" type="line"/>
      <point x="410.64397370059896" y="147.80563545047423" type="line" smooth="yes"/>
      <point x="397.3595695512467" y="140.8396748995758"/>
      <point x="388.07162215004877" y="158.55221376537878"/>
    </contour>
  </outline>
</glyph>
